<?xml version="1.0" encoding="utf-8"?>
<!-- Generator: Adobe Illustrator 25.2.3, SVG Export Plug-In . SVG Version: 6.00 Build 0)  -->
<svg version="1.1" id="Capa_1" xmlns="http://www.w3.org/2000/svg" xmlns:xlink="http://www.w3.org/1999/xlink" x="0px" y="0px"
	 viewBox="0 0 106 55.8" style="enable-background:new 0 0 106 55.8;" xml:space="preserve">
<style type="text/css">
	.st0{display:none;}
	.st1{display:inline;}
	.st2{fill:#FFFFFF;}
	.st3{display:inline;opacity:0.3;enable-background:new    ;}
	.st4{font-family:'ArialMT';}
	.st5{font-size:28.1199px;}
	.st6{clip-path:url(#SVGID_2_);fill:#FFFFFF;}
	.st7{fill:none;}
	.st8{font-family:'HelloJanuari';}
	.st9{font-size:12.3813px;}
	.st10{display:inline;fill:#BC4ED8;}
	.st11{fill:#7AC4B1;}
	.st12{display:inline;fill:#7AC4B1;}
	.st13{clip-path:url(#SVGID_4_);fill:#7AC4B1;}
	.st14{font-size:12.2178px;}
	.st15{clip-path:url(#SVGID_6_);fill:#7AC4B1;}
</style>
<g id="Capa_3" class="st0">
	<rect x="-8.3" y="0.6" class="st1" width="126.7" height="50.4"/>
</g>
<g id="Capa_1_1_" class="st0">
	<g id="Layer_3" class="st1">
		<path class="st2" d="M31.1,13.6H20l-6.8,32.1H4.4l6.7-32.1H0l1.6-7.2h31.1L31.1,13.6z"/>
		<path class="st2" d="M42.9,45.5c-0.3,0.1-0.7,0.2-1.1,0.3c-0.4,0.1-0.9,0.2-1.4,0.3s-1,0.1-1.5,0.2c-0.5,0-1,0.1-1.5,0.1
			c-1.1,0-2.1-0.1-3.1-0.5c-0.8-0.3-1.5-0.7-2.1-1.3c-0.6-0.6-1-1.3-1.2-2.1c-0.3-0.8-0.4-1.7-0.4-2.6c0-0.4,0-0.8,0.1-1.3
			c0-0.5,0.1-1,0.2-1.5s0.2-1.1,0.3-1.6s0.2-1.1,0.3-1.6c0.1-0.3,0.2-0.9,0.4-1.7c0.2-0.8,0.4-1.8,0.6-2.9s0.5-2.2,0.7-3.4
			c0.3-1.2,0.5-2.3,0.7-3.4s0.4-2,0.6-2.9c0.2-0.8,0.3-1.4,0.4-1.7h8.7l-3.5,15.5c-0.1,0.6-0.3,1.4-0.5,2.2
			c-0.2,0.7-0.2,1.4-0.2,2.1c-0.1,0.6,0.2,1.1,0.7,1.5c0.5,0.3,1,0.4,1.5,0.4s1-0.1,1.4-0.2c0.5-0.1,0.9-0.2,1.3-0.4
			c-0.2,1.1-0.5,2.2-0.7,3.2C43.4,43.3,43.1,44.4,42.9,45.5z M45.7,8.6c0,0.7-0.1,1.3-0.4,1.9c-0.3,0.6-0.6,1.1-1.1,1.5
			c-0.5,0.4-1,0.7-1.6,0.9c-0.7,0.2-1.3,0.3-2,0.3s-1.3-0.1-1.9-0.3c-0.6-0.2-1.1-0.5-1.5-0.9c-0.4-0.4-0.8-0.8-1-1.3
			C36,10.2,35.8,9.6,35.8,9c0-1.3,0.5-2.5,1.5-3.4c0.5-0.4,1-0.7,1.7-0.9c0.5-0.2,1.2-0.3,1.9-0.3c0.6,0,1.3,0.1,1.9,0.3
			c0.6,0.2,1.1,0.5,1.5,0.9s0.8,0.8,1,1.3C45.6,7.4,45.7,8,45.7,8.6z"/>
		<path class="st2" d="M62.5,45.7h-9.6l-3.7-28.1h8.6l1.1,15.5c0,0.3,0.1,0.8,0.1,1.3s0.1,1,0.1,1.5s0,1.1,0,1.6s0,0.9,0,1.4h0.1
			c0.1-0.4,0.3-0.8,0.5-1.3s0.4-1,0.6-1.5s0.4-1,0.7-1.5s0.4-1,0.6-1.4l7.5-15.6h9.5L62.5,45.7z"/>
		<path class="st2" d="M106,28.8c0,1.3-0.1,2.7-0.4,4c-0.3,1.4-0.7,2.7-1.2,4c-0.6,1.3-1.3,2.6-2.1,3.7c-0.9,1.2-1.9,2.2-3.1,3.1
			c-1.3,0.9-2.7,1.6-4.3,2.1c-1.8,0.5-3.6,0.8-5.5,0.8c-1.8,0-3.7-0.3-5.4-0.9c-1.4-0.5-2.7-1.4-3.8-2.5c-1-1.1-1.8-2.4-2.2-3.8
			c-0.5-1.5-0.8-3.1-0.7-4.7c0-1.4,0.1-2.8,0.4-4.1c0.3-1.4,0.7-2.7,1.3-4c0.6-1.3,1.3-2.5,2.2-3.7c0.9-1.2,2-2.2,3.2-3
			c1.3-0.9,2.7-1.6,4.2-2c1.7-0.5,3.5-0.8,5.4-0.7c1.8,0,3.5,0.3,5.2,0.8c1.4,0.5,2.7,1.3,3.8,2.4c1,1.1,1.8,2.3,2.3,3.7
			C105.8,25.5,106,27.1,106,28.8z M97.3,28.9c0-0.7-0.1-1.4-0.3-2.1c-0.2-0.6-0.4-1.2-0.8-1.7c-0.3-0.5-0.8-0.8-1.3-1.1
			c-0.5-0.3-1.2-0.4-1.8-0.4c-1.1,0-2.2,0.3-3.1,1s-1.7,1.6-2.3,2.6c-0.6,1.1-1.1,2.3-1.4,3.5c-0.3,1.3-0.5,2.6-0.5,3.9
			c-0.1,1.4,0.3,2.8,1.2,3.9c0.7,0.9,1.9,1.4,3,1.4s2.2-0.3,3.1-1s1.7-1.5,2.3-2.5c0.6-1.1,1.1-2.3,1.4-3.5
			C97.1,31.5,97.3,30.2,97.3,28.9z"/>
	</g>
	<text transform="matrix(1 0 0 1 0 34.4918)" class="st3 st4 st5">MUSITY</text>
</g>
<g id="Capa_2_1_" class="st0">
	<g class="st1">
		<path class="st2" d="M28.1,38.1c1.5,0.9,1.7,3.4,0.4,5.6c-1.3,2.2-3.5,3.4-5,2.5s-1.7-3.4-0.4-5.6C24.3,38.3,26.6,37.2,28.1,38.1z
			"/>
		<g>
			<path class="st2" d="M28.4,39.7c-0.2,0-0.4-0.2-0.4-0.4L27.2,7.5c0-0.3,0.2-0.5,0.5-0.5s0.5,0.2,0.5,0.5L29,39.2
				c0,0.3-0.2,0.5-0.5,0.5H28.4z"/>
		</g>
		<g>
			<path class="st2" d="M34.3,31L34.3,31c-0.3-0.1-0.4-0.7-0.2-1.3c2.1-7.3-1.2-10.8-3.2-12.8l-0.5-0.5c-2.7-3-3.2-5-3.3-7.8
				c0-0.5,0.2-1.2,0.5-1.4c0.3-0.2,0.6,0,0.6,0.5c0,2,0.3,3.8,3,6.7l0.5,0.5c2.1,2.2,5.9,6.2,3.3,15.2C34.9,30.7,34.5,31,34.3,31z"
				/>
		</g>
		<g>
			<path class="st2" d="M0.1,23l15.3,0.4c0.1-0.4,0.3-0.9,0.5-1.3L0.1,23z"/>
			<path class="st2" d="M13.5,28.6c-0.8,0-1.6,0.1-2.4,0.1c-1.6,0.1-3.2,0.1-4.8,0.2c2.8,0.1,5.5,0.2,8.3,0.3l0.2-0.7
				C14.4,28.6,13.9,28.5,13.5,28.6z"/>
			<path class="st2" d="M15.2,24.3L2,24.8l13,0.6c-0.1,0.4-0.1,0.7-0.1,1L4.2,26.8l10.6,0.4l0.1-0.3C14.9,26.3,15,25.3,15.2,24.3z"
				/>
		</g>
		<g>
			<g>
				<defs>
					<polygon id="SVGID_1_" points="12.7,39.7 12.7,9.7 27.9,9.8 27.9,39.7 					"/>
				</defs>
				<clipPath id="SVGID_2_">
					<use xlink:href="#SVGID_1_"  style="overflow:visible;"/>
				</clipPath>
				<path class="st6" d="M42.3,21.9c-0.8-2.4-2.3-4.4-4.2-5.9l0.6-0.7l0.3,0.2c0.2,0.2,0.4,0.2,0.6,0L40,15c0.2-0.2,0.1-0.4-0.1-0.6
					l-2.3-1.8c-0.2-0.2-0.4-0.2-0.6,0l-0.4,0.5c-0.2,0.2-0.1,0.3,0.1,0.5L37,14l-0.7,0.7l0.3,0.2c-2-1.2-4.4-2-6.8-2.2v-1.2h0.4
					c0.4,0,0.6-0.2,0.6-0.5v-0.8c0-0.3-0.2-0.5-0.7-0.5h-2.2h-1.8c-0.4,0-0.6,0.2-0.6,0.5V11c0,0.3,0.2,0.5,0.6,0.5h0.5v1.2
					c-0.8,0.3-1.7,0.4-2.6,0.7c-1.3,0.4-2.5,1-3.6,1.7l-0.5-0.7l0.3-0.2c0.3-0.2,0.3-0.4,0.2-0.6L20,13.1c-0.2-0.2-0.4-0.2-0.6,0
					L17,14.7c-0.3,0.2-0.3,0.3-0.1,0.5l0.4,0.5c0.2,0.2,0.3,0.2,0.6,0l0.3-0.2l0.6,0.8c-3.9,3.5-5.6,8.9-3.8,14
					c1.9,5.4,7.2,8.9,13,9.2c0.4,0,0.7,0,1.1,0c1.6,0,3.2-0.3,4.7-0.9c3.3-1.1,6-3.4,7.6-6.2C43.2,29.3,43.6,25.5,42.3,21.9z
					 M40.1,31.5L39,30.9c-0.1-0.1-0.3,0-0.4,0.1c-0.1,0.1,0,0.3,0.1,0.3l1.1,0.5c-1,1.6-2.3,3-3.9,4.1c-0.1,0.2-0.3,0.3-0.5,0.3
					c-0.8,0.5-1.7,0.9-2.7,1.2s-2,0.5-3,0.6l0,0c-0.2,0-0.4,0-0.5,0v0.1h-0.1c-2,0-4-0.3-5.7-1.1l0.5-1c0.1-0.1,0-0.3-0.1-0.3
					c-0.1-0.1-0.3,0-0.4,0.1l-0.5,1c-1.8-0.9-3.3-2.1-4.5-3.6l1-0.6c0.1-0.1,0.2-0.2,0.1-0.3c-0.1-0.1-0.3-0.2-0.4-0.1l-1,0.6
					C17.5,32,17,31,16.7,30c-0.3-0.8-0.5-1.6-0.6-2.5l0.9-0.1c0.1,0,0.3-0.1,0.3-0.2c0-0.2-0.1-0.3-0.3-0.3L15.8,27
					c-0.1-1.9,0.2-3.8,1-5.5l1.1,0.5H18c0.1,0,0.2-0.1,0.3-0.2c0-0.1,0-0.2-0.2-0.3L17,21c0.9-1.7,2.1-3.2,3.7-4.3l0.7,0.9
					c0.1,0.1,0.1,0.1,0.2,0.1s0.1,0,0.2-0.1s0.1-0.3,0-0.4l-0.5-0.8c1-0.7,2.1-1.2,3.3-1.6c1.1-0.4,2.2-0.6,3.5-0.6v1.2
					c0,0.1,0.2,0.3,0.3,0.3c0.2,0,0.3-0.1,0.3-0.3v-1.1c1.7,0,3.9,0.4,5.7,1.3c0.1,0,0.1,0.1,0.2,0.1l-0.6,1c-0.1,0.1,0,0.3,0.1,0.3
					h0.1c0.1,0,0.2,0,0.2-0.1l0.6-1c1.8,1,3.3,2.3,4.3,3.9l-1.1,0.6c-0.1,0.1-0.2,0.2-0.1,0.3c0,0.1,0.1,0.1,0.2,0.1h0.1l1.1-0.6
					c0.4,0.7,0.8,1.5,1.1,2.3c0.4,1,0.6,2.1,0.6,3.1h-1.3c-0.2,0-0.3,0.1-0.3,0.3c0,0.1,0.1,0.2,0.3,0.2l0,0h1.3
					C41.4,27.9,41,29.8,40.1,31.5z"/>
			</g>
		</g>
		<g>
			<path class="st2" d="M34.3,31l5.9-17.1l1.5-4.3l0.8-2.2c0.1-0.4,0.2-0.7,0.4-1.1c0.2-0.4,0.3-0.8,0.6-1.2
				c0.1-0.1,0.2-0.2,0.3-0.4c0.1-0.1,0.2-0.1,0.3-0.2s0.4-0.2,0.7-0.2c0.2,0,0.3,0.1,0.5,0.1c0.1,0.1,0.2,0.1,0.3,0.2
				s0.2,0.3,0.3,0.4C46,5.2,46,5.3,46.1,5.5c0.1,0.5,0.1,0.9,0.2,1.3c0,0.5,0,0.8,0,1.2L46,9.2l-0.2,4.5c-0.3,6-0.3,12.1-0.7,18.1
				c-0.2,3-0.4,6-0.4,8.9c0,0.7,0,1.5,0.1,2.2c0,0.4,0.1,0.7,0.1,1l0.1,0.4l0.2,0.4c0.1,0.1,0.2,0.3,0.2,0.4
				c0.1,0.1,0.2,0.2,0.3,0.3c0.2,0.2,0.4,0.2,0.7,0.2c0.6-0.1,1.2-0.5,1.7-1.1l0.2,0.2c-0.4,0.7-0.9,1.3-1.7,1.7
				c-0.4,0.2-1,0.2-1.5,0c-0.3-0.1-0.4-0.3-0.6-0.4c-0.2-0.2-0.3-0.3-0.5-0.5L43.6,45c-0.1-0.2-0.2-0.4-0.3-0.6
				c-0.1-0.4-0.3-0.8-0.4-1.2c-0.2-0.8-0.3-1.6-0.4-2.3c-0.4-3.1-0.5-6.1-0.5-9.2c0-6.1,0.8-12.1,1.4-18.1l0.5-4.5L44,8
				c0-0.3,0.1-0.8,0.1-1c0-0.3,0-0.7-0.1-0.9V6c0,0,0,0.1,0.1,0.1c0.1,0.1,0.1,0.1,0.2,0.1c0.1,0.1,0.2,0.1,0.3,0.1
				c0.5,0,0.5-0.2,0.5-0.2s0,0-0.1,0.1c-0.1,0.2-0.3,0.5-0.4,0.8c-0.1,0.3-0.3,0.7-0.4,1l-0.9,2.1l-1.7,4.2l-7,16.7L34.3,31z"/>
		</g>
		<g>
			
				<rect x="48.3" y="24.7" transform="matrix(0.9999 -1.545971e-02 1.545971e-02 0.9999 -0.5746 1.0867)" class="st7" width="43.4" height="26.1"/>
			<text transform="matrix(1.0104 -1.562296e-02 1.546001e-02 0.9999 48.3735 40.7963)" class="st2 st8 st9">usity</text>
		</g>
	</g>
</g>
<g id="Capa_4" class="st0">
	<rect y="4.4" class="st10" width="106" height="42"/>
	<g class="st1">
		<path class="st11" d="M29.3,39.1c-0.2,0-0.3-0.2-0.4-0.4L28.1,7.3c0-0.3,0.2-0.5,0.5-0.5s0.5,0.2,0.5,0.5l0.8,31.3
			c0,0.3-0.2,0.5-0.5,0.5H29.3z"/>
	</g>
	<path class="st12" d="M29,37.5c1.5,0.8,1.6,3.3,0.4,5.5c-1.3,2.2-3.5,3.3-5,2.5S22.8,42.2,24,40C25.3,37.7,27.5,36.6,29,37.5z"/>
	<g class="st1">
		<path class="st11" d="M35.1,30.5L35.1,30.5c-0.3-0.1-0.4-0.7-0.2-1.3c2.1-7.2-1.2-10.6-3.1-12.6l-0.5-0.5
			c-2.7-2.9-3.2-4.9-3.2-7.7c0-0.5,0.2-1.2,0.5-1.4c0.3-0.2,0.6,0,0.6,0.5c0,2,0.3,3.7,2.9,6.6l0.5,0.5c2,2.1,5.9,6.1,3.3,15
			C35.7,30.2,35.4,30.5,35.1,30.5z"/>
	</g>
	<g class="st1">
		<path class="st11" d="M2.6,21l13.7,0.3c0.1-0.4,0.3-0.8,0.5-1.1L2.6,21z"/>
		<path class="st11" d="M14.5,26c-0.7,0-1.4,0.1-2.2,0.1c-1.4,0.1-2.9,0.1-4.3,0.2c2.5,0.1,4.9,0.2,7.4,0.3l0.2-0.7
			C15.3,26,14.9,25.9,14.5,26z"/>
		<path class="st11" d="M16.1,22.2L4.3,22.6l11.6,0.5c0,0.3-0.1,0.6-0.1,0.9l-9.6,0.4l9.5,0.4l0.1-0.3
			C15.8,23.9,15.9,23.1,16.1,22.2z"/>
	</g>
	<g class="st1">
		<g>
			<defs>
				<polygon id="SVGID_3_" points="13.9,39.1 13.9,9.5 28.9,9.6 28.8,39.1 				"/>
			</defs>
			<clipPath id="SVGID_4_">
				<use xlink:href="#SVGID_3_"  style="overflow:visible;"/>
			</clipPath>
			<path class="st13" d="M43,21.6c-0.8-2.3-2.3-4.3-4.1-5.8l0.6-0.7l0.3,0.2c0.2,0.2,0.4,0.2,0.6,0l0.4-0.5c0.2-0.2,0.1-0.4-0.1-0.6
				l-2.3-1.8c-0.2-0.2-0.4-0.2-0.6,0l-0.4,0.5c-0.2,0.2-0.1,0.3,0.1,0.5l0.3,0.2l-0.6,0.7l0.2,0.2c-2-1.2-4.3-2-6.7-2.2v-1.2h0.4
				c0.4,0,0.6-0.2,0.6-0.5V9.8c0-0.3-0.2-0.5-0.7-0.5h-2.2H27c-0.4,0-0.6,0.2-0.6,0.5v0.8c0,0.3,0.2,0.5,0.6,0.4h0.5v1.2
				c-0.9,0.1-1.8,0.3-2.6,0.6c-1.3,0.4-2.5,1-3.6,1.7l-0.5-0.7l0.3-0.2c0.2-0.2,0.3-0.4,0.2-0.5L21,12.9c-0.2-0.2-0.4-0.2-0.6,0
				L18,14.5c-0.2,0.2-0.3,0.3-0.1,0.5l0.4,0.5c0.2,0.2,0.3,0.2,0.6,0l0.3-0.2l0.6,0.7c-3.9,3.4-5.5,8.8-3.7,13.8
				c1.9,5.4,7.1,8.8,12.8,9.1c0.4,0,0.7,0,1.1,0c1.5,0,3.1-0.3,4.6-0.9c3.2-1.1,5.9-3.3,7.5-6.2C44,28.8,44.3,25.1,43,21.6z
				 M40.8,31l-1.1-0.5c-0.1-0.1-0.3,0-0.4,0.1c-0.1,0.1,0,0.3,0.1,0.3l1.1,0.5c-1,1.6-2.3,3-3.9,4c-0.1,0.2-0.3,0.3-0.5,0.3
				c-0.8,0.5-1.7,0.9-2.6,1.2c-1,0.3-2,0.5-3,0.6l0,0c-0.2,0-0.4,0-0.5,0v0.1h-0.1c-2,0-3.9-0.3-5.6-1.1l0.5-1
				c0.1-0.1,0-0.3-0.1-0.3c-0.1-0.1-0.3,0-0.4,0.1l-0.5,1c-1.7-0.8-3.3-2.1-4.5-3.6l1-0.6c0.1-0.1,0.2-0.2,0.1-0.3
				c-0.1-0.1-0.3-0.2-0.4-0.1l-1,0.6c-0.6-0.8-1.1-1.7-1.4-2.7c-0.3-0.8-0.5-1.6-0.6-2.4l1.1-0.1c0.1,0,0.3-0.1,0.3-0.2
				c0-0.2-0.1-0.3-0.3-0.3l-1.2,0.1c-0.1-1.9,0.2-3.7,1-5.4l1,0.5H19c0.1,0,0.2-0.1,0.3-0.2c0-0.1,0-0.2-0.2-0.3l-1-0.4
				c0.8-1.7,2.1-3.1,3.7-4.3l0.7,0.9c0.1,0.1,0.1,0.1,0.2,0.1s0.1,0,0.2-0.1s0.1-0.2,0-0.4l-0.7-0.9c1-0.6,2.1-1.2,3.2-1.5
				s2.2-0.5,3.4-0.6v1.1c0,0.1,0.2,0.3,0.3,0.3c0.1,0,0.3-0.1,0.3-0.3V14c1.6,0,3.8,0.4,5.6,1.2c0.1,0,0.1,0.1,0.2,0.1l-0.6,1
				c-0.1,0.1,0,0.3,0.1,0.3h0.1c0.1,0,0.2,0,0.2-0.1l0.6-1c1.8,0.9,3.2,2.2,4.3,3.8l-1,0.6c-0.1,0.1-0.2,0.2-0.1,0.3
				c0,0.1,0.1,0.1,0.2,0.1h0.1l1.1-0.6c0.4,0.7,0.8,1.4,1.1,2.2c0.4,1,0.6,2,0.6,3.1h-1.2c-0.2,0-0.3,0.1-0.2,0.3
				c0,0.1,0.1,0.2,0.3,0.2l0,0H42C42.2,27.5,41.7,29.3,40.8,31z"/>
		</g>
	</g>
	<g class="st1">
		<path class="st11" d="M35.2,30.5l6-16.9l1.5-4.2l0.8-2.1c0.3-0.7,0.5-1.4,1-2.2c0.1-0.1,0.1-0.2,0.2-0.3c0.1-0.1,0.3-0.3,0.8-0.3
			c0.1,0,0.2,0,0.3,0.1s0.1,0.1,0.2,0.2c0.1,0.1,0.2,0.2,0.2,0.3c0.1,0.2,0.1,0.3,0.1,0.4c0.1,0.5,0.1,0.9,0.1,1.2
			c0,0.9-0.1,1.5-0.1,2.3L46,13.5c-0.3,6-0.5,11.9-0.8,17.8c-0.2,3-0.3,5.9-0.3,8.9c0,0.7,0,1.5,0.1,2.2c0,0.4,0.1,0.7,0.2,1
			l0.1,0.5l0.2,0.5c0.3,0.6,0.8,1,1.4,0.9c0.6-0.1,1.2-0.6,1.7-1.2l0.2,0.1c-0.4,0.6-0.9,1.3-1.7,1.6c-0.4,0.2-0.9,0.2-1.3-0.1
			c-0.2-0.1-0.4-0.2-0.6-0.4c-0.1-0.2-0.3-0.3-0.4-0.5l-0.3-0.5c-0.1-0.2-0.2-0.4-0.3-0.6c-0.1-0.4-0.2-0.8-0.3-1.1
			c-0.2-0.8-0.3-1.5-0.4-2.3c-0.3-3-0.3-6-0.3-9c0.1-6,0.7-11.9,1.2-17.9l0.4-4.5c0.2-0.7,0.3-1.5,0.3-2.2c0-0.3,0-0.7-0.1-1
			c0-0.1,0-0.1,0-0.1l0,0c0,0,0.1,0,0.1,0.1c0.1,0,0.1,0,0.2,0.1c0.3,0,0.3-0.1,0.3-0.1l-0.1,0.1c-0.3,0.5-0.6,1.2-0.9,1.9l-0.8,2.1
			L42.1,14l-6.8,16.6L35.2,30.5z"/>
	</g>
	<text transform="matrix(1.0104 -1.562296e-02 1.546001e-02 0.9999 48.7964 39.0278)" class="st12 st8 st14">usity</text>
</g>
<g>
	<path class="st11" d="M47.8,45.6c-0.3-0.1-0.5-0.3-0.5-0.6L46,4.2c0-0.3,0.3-0.6,0.7-0.6c0.4,0,0.7,0.3,0.7,0.6L48.6,45
		c0,0.3-0.3,0.6-0.7,0.6C47.9,45.6,47.8,45.6,47.8,45.6z"/>
</g>
<path class="st11" d="M47.4,43.6c2.2,1.1,2.4,4.3,0.6,7.2c-1.9,2.9-5.2,4.4-7.4,3.3c-2.2-1.1-2.4-4.3-0.6-7.2
	C41.9,43.9,45.2,42.5,47.4,43.6z"/>
<g>
	<path class="st11" d="M56.4,34.4C56.4,34.4,56.4,34.4,56.4,34.4c-0.4-0.2-0.5-0.9-0.3-1.7c3.1-9.4-1.7-13.8-4.6-16.5l-0.7-0.7
		c-3.9-3.8-4.7-6.4-4.8-10.1c0-0.7,0.3-1.5,0.8-1.8c0.5-0.3,0.8,0,0.9,0.7C47.7,7,48,9.2,51.9,13l0.7,0.7c3,2.8,8.7,8,4.8,19.6
		C57.2,34,56.8,34.5,56.4,34.4z"/>
</g>
<g>
	<path class="st11" d="M6.5,24.1l22.4,0.5c0.2-0.6,0.5-1.1,0.8-1.6L6.5,24.1z"/>
	<path class="st11" d="M26,31.3c-1.2,0-2.4,0.1-3.5,0.1c-2.4,0.1-4.7,0.2-7.1,0.3c4,0.1,8.1,0.3,12.1,0.4l0.3-1
		C27.3,31.4,26.6,31.3,26,31.3z"/>
	<path class="st11" d="M28.5,25.9L9.3,26.5l18.9,0.7c-0.1,0.5-0.1,0.9-0.2,1.3l-15.6,0.6L28,29.7l0.1-0.4
		C28.1,28.4,28.2,27.1,28.5,25.9z"/>
</g>
<g>
	<defs>
		<polygon id="SVGID_5_" points="24.9,45.6 24.9,7.1 47.1,7.1 47.1,45.6 		"/>
	</defs>
	<clipPath id="SVGID_6_">
		<use xlink:href="#SVGID_5_"  style="overflow:visible;"/>
	</clipPath>
	<path class="st15" d="M68.1,22.8c-1.2-3-3.4-5.6-6.1-7.6l0.9-0.9l0.4,0.3c0.4,0.2,0.7,0.3,0.9,0l0.6-0.6c0.2-0.2,0.2-0.5-0.2-0.7
		L61.2,11c-0.4-0.2-0.6-0.2-0.9,0l-0.6,0.6c-0.2,0.2-0.2,0.4,0.1,0.7l0.4,0.3l-1,1l0.4,0.2c-3-1.6-6.4-2.6-10-2.8l0-1.6l0.7,0
		c0.6,0,0.9-0.2,0.9-0.6l0-1.1c0-0.4-0.4-0.6-1-0.6l-3.2,0.1l-2.6,0c-0.6,0-0.8,0.2-0.8,0.6l0,1.1c0,0.4,0.3,0.6,0.9,0.6l0.8,0
		l0,1.6c-1.3,0.1-2.6,0.4-3.9,0.7c-1.9,0.5-3.7,1.3-5.3,2.2l-0.8-0.9l0.4-0.2c0.4-0.2,0.5-0.5,0.3-0.7l-0.6-0.7
		c-0.2-0.3-0.5-0.3-0.9,0L31,13.6c-0.4,0.2-0.4,0.4-0.2,0.7l0.6,0.7c0.2,0.3,0.5,0.3,0.8,0.1l0.5-0.3l0.9,1
		c-5.7,4.5-8.1,11.5-5.5,18.1c2.8,7,10.6,11.5,19,11.9c0.5,0,1,0,1.6,0c2.3-0.1,4.6-0.4,6.9-1.1c4.8-1.5,8.7-4.3,11.1-8
		C69.4,32.2,69.9,27.4,68.1,22.8z M64.8,35.1l-1.6-0.7c-0.2-0.1-0.5,0-0.6,0.2c-0.1,0.2,0,0.3,0.2,0.4l1.6,0.7
		c-1.4,2.1-3.4,3.9-5.8,5.3c-0.2,0.2-0.4,0.4-0.8,0.4c-1.2,0.6-2.5,1.1-3.9,1.5c-1.5,0.4-2.9,0.6-4.4,0.7l0-0.1c-0.3,0-0.5,0-0.8,0
		l0,0.1c-0.1,0-0.1,0-0.2,0c-2.9,0.1-5.8-0.4-8.4-1.4L41,41c0.1-0.2,0-0.4-0.1-0.4c-0.2-0.1-0.5,0-0.6,0.1l-0.8,1.3
		c-2.6-1.1-4.9-2.7-6.6-4.7l1.4-0.8c0.2-0.1,0.2-0.3,0.1-0.4c-0.1-0.2-0.4-0.2-0.6-0.1l-1.4,0.8c-0.9-1.1-1.6-2.3-2.1-3.6
		c-0.4-1-0.7-2.1-0.8-3.2l1.7-0.1c0.2,0,0.4-0.1,0.4-0.3c0-0.2-0.2-0.4-0.4-0.3l-1.7,0.1c-0.2-2.4,0.3-4.9,1.5-7.1l1.5,0.6
		c0.1,0,0.1,0,0.2,0c0.2,0,0.3-0.1,0.4-0.3c0-0.2-0.1-0.3-0.2-0.4l-1.5-0.6c1.3-2.2,3.1-4.1,5.5-5.6l1,1.2c0.1,0.1,0.2,0.1,0.3,0.1
		c0.1,0,0.2,0,0.2-0.1c0.2-0.1,0.2-0.3,0.1-0.5l-1-1.1c1.4-0.8,3-1.5,4.8-2c1.7-0.5,3.2-0.7,5.1-0.8v1.5c0,0.2,0.2,0.3,0.5,0.3
		c0.2,0,0.5-0.1,0.5-0.3v-1.5c2.4,0,5.7,0.5,8.3,1.6c0.1,0,0.2,0.1,0.3,0.1L55.9,16c-0.1,0.2,0,0.4,0.1,0.5c0.1,0,0.1,0,0.2,0
		c0.1,0,0.3-0.1,0.3-0.2l0.9-1.3c2.6,1.2,4.7,2.9,6.3,5l-1.6,0.8c-0.2,0.1-0.3,0.3-0.2,0.4c0.1,0.1,0.2,0.2,0.4,0.2
		c0.1,0,0.1,0,0.2,0l1.6-0.8c0.6,0.9,1.2,1.9,1.6,2.9c0.5,1.3,0.8,2.7,0.9,4l-1.8,0.1c-0.3,0-0.5,0.2-0.4,0.4
		c0.1,0.1,0.2,0.2,0.4,0.2h0l1.8,0C66.8,30.5,66.1,32.9,64.8,35.1z"/>
</g>
<g>
	<path class="st11" d="M56.5,34.5l9.1-21.9l2.3-5.5L69,4.4c0.4-0.9,0.7-1.9,1.3-2.8c0.2-0.2,0.3-0.5,0.8-0.7
		c0.1-0.1,0.3-0.1,0.5-0.1c0.2,0,0.4,0.1,0.6,0.2c0.3,0.2,0.3,0.4,0.4,0.6c0.2,0.6,0.2,1.1,0.3,1.7c0,0.2,0,0.6,0,0.8l0,0.8
		l-0.1,1.5l-0.4,5.9c-0.6,7.9-0.9,15.7-1.3,23.6c-0.2,3.9-0.3,7.9-0.2,11.7c0,1,0.1,1.9,0.3,2.9c0.1,0.5,0.2,0.9,0.3,1.3
		c0.1,0.2,0.2,0.4,0.3,0.6c0.1,0.2,0.2,0.4,0.4,0.5c0.3,0.4,0.6,0.6,1,0.8c0.4,0.1,0.8,0.1,1.3,0c0.9-0.3,1.7-0.8,2.4-1.5l0.2,0.1
		c-0.6,0.8-1.3,1.5-2.3,2c-0.5,0.2-1.1,0.3-1.7,0.1c-0.5-0.2-1.1-0.5-1.4-0.9c-0.2-0.2-0.4-0.4-0.5-0.6c-0.2-0.2-0.3-0.4-0.4-0.7
		c-0.3-0.5-0.4-1-0.5-1.5c-0.3-1-0.4-2-0.5-3c-0.5-4-0.4-8-0.4-11.9c0.2-7.9,1-15.8,1.8-23.7l0.6-5.9c0.1-1,0.2-2,0.2-2.9
		c0-0.4-0.1-1-0.2-1.2c0-0.1-0.1-0.1,0,0c0,0,0.1,0.1,0.2,0.1c0.1,0,0.1,0,0.1,0c0,0-0.2,0.1-0.3,0.3c-0.5,0.7-0.9,1.6-1.3,2.5
		l-1.2,2.7L66.5,13l-9.8,21.6L56.5,34.5z"/>
</g>
</svg>
