<?xml version="1.0" encoding="utf-8"?>
<!-- Generator: Adobe Illustrator 27.5.0, SVG Export Plug-In . SVG Version: 6.00 Build 0)  -->
<svg version="1.1" xmlns="http://www.w3.org/2000/svg" xmlns:xlink="http://www.w3.org/1999/xlink" x="0px" y="0px"
	 viewBox="0 0 500 500" style="enable-background:new 0 0 500 500;" xml:space="preserve">
<g id="BACKGROUND">
	<rect x="0" y="-0.001" style="fill:#FFFFFF;" width="500" height="500.002"/>
</g>
<g id="OBJECTS">
	<g>
		<g>
			<path style="fill:#ECEEFD;" d="M420.433,339.764c-2.643-8.309-13.746-8.309-26.435-6.232
				c-12.689,2.078-35.422,11.945-35.422,11.945s22.282-15.007,38.065-33.757c17.009-20.203,27.633-45.235,18.839-54.816
				c-4.633-5.047-25.668,9.714-42.63,25.214c-15.234,13.923-37.537,41.027-37.537,41.027s19.987-29.746,31.193-61.801
				c8.991-25.722,9.355-55.13,0.184-60.023c-9.172-4.893-29.791,24.362-33.314,26.786c-3.523,2.424-16.333,18.5-16.333,18.5
				s1.045-102.988-13.272-99.385c-16.003,4.028-23.804,67.938-27.2,109.456c-7.802-47.143-23.939-121.41-39.064-113.741
				c-16.914,8.575-5.114,92.214,1.085,129.592c-4.019-12.446-16.455-49.469-32.807-83.891
				c-18.282-38.484-41.988-73.507-53.574-71.322c-12.14,2.289,3.859,74.092,8.459,90.018c4.6,15.926,31.605,74.092,31.605,74.092
				s-16.619-23.543-27.005-36.007c-10.387-12.464-37.393-34.623-49.164-30.468c-11.771,4.155,10.387,44.316,20.081,60.935
				c8.574,14.698,37.457,61.267,46.551,70.355c-7.817-6.807-37.685-32.585-46.035-36.425c-9.634-4.431-24.972-6.935-27.692-5.085
				c-5.439,3.7,5.357,32.595,20.642,47.325c16.529,15.927,52.165,33.237,52.165,33.237l155.081-0.347c0,0,19.042-0.065,39.652-8.309
				C397.598,368.217,423.075,348.073,420.433,339.764z"/>
			<g>
				<g>
					<path style="fill:#8C6EE0;" d="M119.016,144.832c-2.632,2.733-18.445-5.404-18.987-13.347
						c-0.541-7.946,6.958-4.479,10.52-1.243C114.112,133.479,121.647,142.101,119.016,144.832z"/>
					<path style="fill:#C3B4EF;" d="M128.939,149.847c-1.123,0.379-13.589-14.382-10.174-21.498
						c3.413-7.111,8.372-0.538,9.946,3.955C130.283,136.8,130.061,149.472,128.939,149.847z"/>
					<path style="fill:#8C6EE0;" d="M141.126,160.673c-1.188,0.081-9.568-17.208-4.429-23.2c5.138-5.989,8.292,1.564,8.677,6.275
						C145.763,148.46,142.314,160.588,141.126,160.673z"/>
					<path style="fill:#8C6EE0;" d="M130.764,153.477c0.049,1.18-17.698,8.045-23.603,2.497c-5.905-5.553,1.832-8.053,6.609-8.053
						C118.55,147.92,130.714,152.296,130.764,153.477z"/>
					<path style="fill:#8C6EE0;" d="M143.219,163.773c0.047,1.178-17.699,8.049-23.605,2.499c-5.901-5.553,1.832-8.054,6.611-8.052
						C131.008,158.218,143.167,162.594,143.219,163.773z"/>
					<path style="fill:#C3B4EF;" d="M149.009,174.309c0.627-0.99-11.235-16.221-19.061-14.55c-7.829,1.672-2.414,7.886,1.697,10.399
						C135.752,172.672,148.385,175.3,149.009,174.309z"/>
					<path style="fill:#8C6EE0;" d="M157.024,188.392c0.35-1.118-14.936-13.01-22.038-9.437c-7.103,3.575-0.309,8.284,4.285,9.709
						C143.86,190.091,156.673,189.514,157.024,188.392z"/>
					<path style="fill:#8C6EE0;" d="M152.202,176.869c1.16,0.309,11.956-15.127,7.768-22.019c-4.187-6.895-8.402-0.055-9.477,4.519
						C149.424,163.939,151.041,176.558,152.202,176.869z"/>
					<path style="fill:#8C6EE0;" d="M159.635,191.09c1.157,0.311,11.955-15.127,7.767-22.021c-4.189-6.89-8.404-0.053-9.477,4.519
						C156.854,178.162,158.475,190.778,159.635,191.09z"/>
					<path style="fill:#C3B4EF;" d="M165.277,202.454c-1.194-0.016-8.045-17.925-2.388-23.439c5.657-5.517,8.142,2.262,8.112,6.978
						C170.977,190.71,166.473,202.474,165.277,202.454z"/>
					<path style="fill:#8C6EE0;" d="M172.311,218.713c-1.162-0.314-3.269-19.231,3.647-23.13c6.919-3.898,7.357,4.197,6.127,8.727
						C180.853,208.84,173.468,219.029,172.311,218.713z"/>
					<path style="fill:#8C6EE0;" d="M165.69,204.776c-0.355,1.119-19.555,1.673-23.29-5.465c-3.73-7.134,4.472-6.912,9.015-5.334
						C155.96,195.554,166.044,203.66,165.69,204.776z"/>
					<path style="fill:#8C6EE0;" d="M174.135,220.177c-0.355,1.115-19.556,1.669-23.289-5.465c-3.732-7.135,4.47-6.917,9.014-5.338
						C164.403,210.952,174.487,219.059,174.135,220.177z"/>
				</g>
				<path style="fill:none;stroke:#8C6EE0;stroke-width:2;stroke-linecap:round;stroke-linejoin:round;stroke-miterlimit:10;" d="
					M180.667,234.667c-12.662-20.619-23.63-48.845-31.197-62.212c-9.555-16.886-31.291-28.696-31.291-28.696"/>
			</g>
			<g>
				<path style="fill:#B5A4EB;" d="M388.703,204.737c0,0-3.62,20.955-0.853,39.717c2.772,18.768,1.784,52.01-15.863,65.516
					c-17.649,13.502-51.965,25.115-51.965,25.115s1.556-12.453,2.488-26.146c0.611-8.992,1.497-11.889,3.076-28.573
					c1.579-16.685,10.677-33.075,17.938-41.725C359.042,220.149,388.703,204.737,388.703,204.737z"/>
				<g>
					<g>
						<path style="fill:#977FE3;" d="M321.355,333.383c0,0,1.123-1.861,3.09-5.119c1.958-3.26,4.797-7.884,8.094-13.487
							c1.685-2.779,3.418-5.841,5.271-9.061c1.847-3.223,3.688-6.676,5.537-10.255c1.853-3.575,3.477-7.377,5.073-11.333
							c1.609-3.938,3.19-7.975,4.763-12.02c1.564-4.049,3.147-8.096,4.758-12.062c1.609-3.967,3.191-7.875,4.834-11.614
							c1.634-3.742,3.27-7.338,4.904-10.711c1.649-3.366,3.3-6.507,4.914-9.358c1.631-2.842,3.239-5.385,4.778-7.563
							c1.535-2.18,3.029-3.971,4.336-5.369c1.319-1.39,2.474-2.358,3.288-2.974c0.406-0.31,0.729-0.53,0.951-0.673
							c0.219-0.146,0.332-0.221,0.332-0.221s-0.106,0.085-0.311,0.249c-0.208,0.161-0.509,0.408-0.884,0.751
							c-0.756,0.678-1.798,1.743-2.987,3.209c-2.386,2.929-5.259,7.52-8.151,13.316c-1.46,2.892-2.944,6.075-4.419,9.486
							c-1.496,3.401-3.003,7.022-4.498,10.796c-1.489,3.776-3.032,7.679-4.539,11.672c-1.513,3.995-3.049,8.054-4.585,12.112
							c-1.549,4.059-3.097,8.123-4.708,12.103c-1.632,3.958-3.329,7.897-5.27,11.529c-1.901,3.648-3.946,7.041-5.891,10.246
							c-1.977,3.185-3.923,6.144-5.747,8.853c-3.677,5.399-6.905,9.779-9.225,12.799c-1.153,1.515-2.083,2.687-2.726,3.48
							C321.697,332.96,321.355,333.383,321.355,333.383z"/>
					</g>
					<g>
						<path style="fill:#977FE3;" d="M359.761,225.273c0.104,5.115,0.156,10.21,0.344,15.284c0.122,2.535,0.218,5.067,0.494,7.566
							c0.129,1.248,0.275,2.491,0.503,3.7c0.115,0.602,0.246,1.2,0.414,1.767c0.155,0.578,0.379,1.099,0.608,1.563l-1.585-0.205
							c1.746-1.736,3.519-3.383,5.378-4.963c1.87-1.56,3.773-3.086,5.797-4.457c1.006-0.691,2.029-1.362,3.09-1.974
							c1.057-0.617,2.142-1.192,3.261-1.697c0.558-0.255,1.132-0.477,1.707-0.692c0.578-0.21,1.165-0.393,1.763-0.541
							c0.601-0.139,1.205-0.252,1.816-0.312c0.613-0.05,1.226-0.035,1.827,0.032c-0.606,0.033-1.2,0.117-1.779,0.262
							c-0.58,0.143-1.145,0.328-1.7,0.54c-0.551,0.226-1.095,0.46-1.627,0.725c-0.53,0.27-1.056,0.544-1.566,0.851
							c-2.063,1.183-3.992,2.595-5.878,4.054c-1.87,1.483-3.705,3.017-5.474,4.626c-1.77,1.602-3.536,3.242-5.184,4.937
							l-0.961,0.989l-0.624-1.194c-0.703-1.347-0.965-2.656-1.21-3.957c-0.225-1.301-0.372-2.594-0.472-3.885
							c-0.167-2.583-0.235-5.152-0.168-7.717c0.042-2.564,0.185-5.122,0.377-7.673C359.129,230.35,359.374,227.804,359.761,225.273z
							"/>
					</g>
					<g>
						<path style="fill:#977FE3;" d="M345.454,245.689c0.6,2.513,1.101,5.037,1.696,7.543l1.665,7.527
							c0.588,2.497,1.133,5.002,1.804,7.463c0.325,1.231,0.657,2.459,1.04,3.658c0.38,1.191,0.814,2.388,1.349,3.388l-1.252-0.431
							c2.704-1.089,5.402-2.136,8.138-3.113c2.738-0.961,5.484-1.907,8.272-2.727c2.781-0.839,5.596-1.584,8.447-2.178
							c1.428-0.284,2.868-0.522,4.315-0.691c1.444-0.171,2.915-0.26,4.358-0.093c-0.725,0.027-1.442,0.091-2.153,0.214
							c-0.711,0.103-1.418,0.238-2.12,0.395c-1.404,0.312-2.792,0.689-4.168,1.113c-2.76,0.813-5.483,1.751-8.199,2.709
							c-2.707,0.984-5.415,1.969-8.099,3.021c-2.685,1.04-5.381,2.085-8.026,3.193l-0.834,0.35l-0.418-0.781
							c-0.682-1.272-1.084-2.523-1.479-3.783c-0.381-1.259-0.716-2.518-1.017-3.782c-0.57-2.535-1.092-5.068-1.499-7.62
							c-0.431-2.547-0.785-5.104-1.101-7.665C345.911,250.829,345.601,248.27,345.454,245.689z"/>
					</g>
					<g>
						<path style="fill:#977FE3;" d="M332.428,266.975c0.826,2.966,1.549,5.95,2.36,8.914l2.299,8.912
							c0.793,2.961,1.537,5.932,2.396,8.862c0.418,1.467,0.837,2.934,1.308,4.372c0.236,0.718,0.481,1.431,0.745,2.127
							c0.267,0.689,0.557,1.375,0.871,1.964l-1.33-0.396c2.787-1.409,5.572-2.771,8.405-4.06c2.836-1.275,5.684-2.527,8.588-3.65
							c2.897-1.14,5.838-2.178,8.834-3.049c1.505-0.414,3.023-0.788,4.56-1.07c0.768-0.141,1.541-0.264,2.321-0.324
							c0.778-0.073,1.565-0.057,2.336,0.01c-0.777,0.033-1.542,0.115-2.296,0.284c-0.756,0.139-1.504,0.327-2.244,0.539
							c-1.481,0.42-2.936,0.931-4.376,1.478c-2.886,1.081-5.719,2.304-8.538,3.557c-2.808,1.28-5.614,2.566-8.387,3.926
							c-2.776,1.346-5.559,2.705-8.283,4.128l-0.862,0.451l-0.468-0.846c-0.421-0.761-0.702-1.503-0.987-2.247
							c-0.272-0.742-0.519-1.484-0.754-2.227c-0.466-1.486-0.886-2.974-1.278-4.468c-0.756-2.994-1.476-5.988-2.089-9.004
							c-0.638-3.01-1.204-6.034-1.738-9.062C333.337,273.058,332.804,270.031,332.428,266.975z"/>
					</g>
				</g>
			</g>
			<g>
				<path style="fill:#CBBFF1;" d="M415.699,285.405c0,0-6.163,9.657-7.797,17.165c-1.631,7.503-14.258,43.728-37.93,46.298
					c-23.017,2.495-44.458,11.016-44.458,11.016s14.262-24.998,18.75-36.618c5.195-13.45,22.092-29.018,37.766-35.95
					C394.788,281.681,407.094,280.018,415.699,285.405z"/>
				<g>
					<g>
						<path style="fill:#AD9AE9;" d="M327.314,357.764c0,0,4.211-5.645,11.109-13.622c1.713-2.005,3.615-4.135,5.645-6.376
							c2.007-2.261,4.234-4.548,6.515-6.939c1.123-1.21,2.372-2.354,3.588-3.548c1.221-1.201,2.476-2.368,3.742-3.539
							c2.522-2.36,5.12-4.728,7.745-7.067c2.625-2.339,5.25-4.682,7.904-6.911c2.65-2.233,5.286-4.399,7.873-6.455
							c5.203-4.073,10.215-7.693,14.727-10.479c2.245-1.408,4.377-2.584,6.29-3.575c1.918-0.987,3.661-1.706,5.1-2.268
							c1.456-0.529,2.629-0.851,3.433-1.041c0.807-0.169,1.237-0.259,1.237-0.259s-0.416,0.139-1.196,0.4
							c-0.774,0.274-1.881,0.747-3.258,1.401c-1.367,0.682-2.987,1.579-4.797,2.689c-1.809,1.114-3.786,2.47-5.917,3.986
							c-4.247,3.052-9.028,6.862-14.013,11.111c-2.508,2.107-5.064,4.327-7.635,6.617c-2.566,2.294-5.191,4.607-7.773,6.971
							c-2.585,2.365-5.17,4.729-7.715,7.057c-2.581,2.32-4.976,4.646-7.356,6.898c-2.353,2.277-4.602,4.506-6.732,6.634
							c-2.132,2.126-4.148,4.135-6.01,5.991c-1.865,1.855-3.575,3.557-5.09,5.065c-1.524,1.503-2.852,2.813-3.946,3.892
							C328.576,356.54,327.314,357.764,327.314,357.764z"/>
					</g>
					<g>
						<path style="fill:#AD9AE9;" d="M388.257,288.087c-1.516,3.04-3.057,6.034-4.458,9.064c-0.673,1.525-1.365,3.037-1.879,4.586
							c-0.27,0.768-0.509,1.54-0.672,2.303c-0.083,0.381-0.145,0.761-0.174,1.127c-0.041,0.37-0.018,0.713,0.005,1.035l-1.127-0.853
							c1.938-0.238,3.845-0.428,5.776-0.54c1.928-0.095,3.859-0.17,5.795-0.105c1.934,0.04,3.871,0.191,5.792,0.491
							c0.958,0.167,1.913,0.354,2.848,0.63c0.466,0.142,0.927,0.297,1.378,0.476c0.448,0.19,0.884,0.405,1.301,0.644
							c-0.914-0.301-1.852-0.467-2.791-0.585c-0.94-0.108-1.884-0.178-2.83-0.201c-1.89-0.068-3.784-0.001-5.676,0.09
							c-1.892,0.116-3.784,0.238-5.672,0.434c-1.884,0.185-3.787,0.372-5.643,0.641l-1.01,0.146l-0.118-0.999
							c-0.124-1.047,0.038-1.975,0.235-2.859c0.21-0.881,0.478-1.724,0.798-2.536c0.663-1.615,1.406-3.164,2.267-4.643
							c0.841-1.488,1.766-2.92,2.732-4.318C386.121,290.731,387.131,289.365,388.257,288.087z"/>
					</g>
					<g>
						<path style="fill:#AD9AE9;" d="M373.291,296.621c-1.239,3.486-2.535,6.922-3.725,10.375c-0.569,1.733-1.166,3.452-1.611,5.194
							c-0.229,0.867-0.444,1.732-0.588,2.591c-0.146,0.851-0.221,1.721-0.14,2.437l-1.005-0.862
							c2.356-0.009,4.692,0.008,7.037,0.095c2.341,0.103,4.684,0.214,7.02,0.446c2.337,0.21,4.67,0.51,6.986,0.932
							c2.295,0.463,4.651,0.96,6.727,2.083c-1.108-0.38-2.254-0.58-3.399-0.752c-1.148-0.16-2.298-0.291-3.457-0.371
							c-2.31-0.19-4.631-0.273-6.952-0.35c-2.322-0.048-4.644-0.11-6.967-0.109c-2.321-0.011-4.653-0.029-6.962,0.021l-0.903,0.019
							l-0.103-0.881c-0.064-0.554-0.064-1.087-0.015-1.585c0.038-0.506,0.114-0.99,0.204-1.465c0.181-0.952,0.416-1.871,0.688-2.774
							c0.58-1.791,1.219-3.54,1.976-5.237c0.735-1.705,1.549-3.368,2.403-5.008C371.38,299.79,372.276,298.172,373.291,296.621z"/>
					</g>
					<g>
						<path style="fill:#AD9AE9;" d="M355.359,311.243c-0.72,3.51-1.525,6.975-2.26,10.437c-0.342,1.735-0.724,3.457-0.974,5.188
							c-0.138,0.861-0.261,1.72-0.334,2.57c-0.074,0.844-0.095,1.697-0.006,2.438l-0.947-0.861c2.586,0.136,5.156,0.288,7.729,0.508
							c2.569,0.233,5.14,0.472,7.7,0.821c2.562,0.328,5.116,0.74,7.653,1.255c1.265,0.276,2.53,0.562,3.775,0.928
							c1.242,0.364,2.483,0.786,3.621,1.401c-1.219-0.424-2.48-0.655-3.742-0.868c-1.264-0.201-2.532-0.371-3.806-0.504
							c-2.545-0.285-5.101-0.48-7.657-0.674c-2.559-0.166-5.115-0.354-7.677-0.483c-2.559-0.143-5.125-0.296-7.678-0.39
							l-0.846-0.031l-0.101-0.831c-0.125-1.03-0.054-1.967,0.034-2.893c0.099-0.923,0.234-1.827,0.41-2.717
							c0.376-1.776,0.794-3.526,1.325-5.242c0.507-1.722,1.09-3.416,1.708-5.095C353.927,314.526,354.583,312.862,355.359,311.243z"
							/>
					</g>
				</g>
			</g>
			<g>
				<g>
					<path style="fill:#8C6EE0;" d="M359.633,169.602c-3.771-0.43-6.917-17.933-0.938-23.19c5.982-5.258,7.786,2.805,7.379,7.601
						C365.669,158.808,363.4,170.033,359.633,169.602z"/>
					<path style="fill:#C3B4EF;" d="M361.679,180.531c-0.983-0.662,3.164-19.532,10.892-21.144
						c7.722-1.611,5.514,6.322,2.901,10.303C372.858,173.669,362.658,181.193,361.679,180.531z"/>
					<path style="fill:#8C6EE0;" d="M360.486,196.789c-0.786-0.895,7.852-18.057,15.734-17.616c7.879,0.441,3.797,7.535,0.29,10.704
						C373.004,193.049,361.275,197.681,360.486,196.789z"/>
					<path style="fill:#8C6EE0;" d="M359.906,184.185c-0.908,0.756-17.144-9.166-16.326-17.227
						c0.821-8.064,7.508-3.439,10.412,0.355C356.896,171.108,360.813,183.429,359.906,184.185z"/>
					<path style="fill:#8C6EE0;" d="M359.296,200.333c-0.907,0.753-17.146-9.164-16.329-17.229c0.824-8.062,7.51-3.44,10.413,0.358
						C356.289,187.26,360.202,199.577,359.296,200.333z"/>
					<path style="fill:#C3B4EF;" d="M354.447,211.335c1.166-0.105,6.055-18.78-0.028-23.98c-6.086-5.202-7.73,2.875-7.227,7.666
						C347.691,199.811,353.282,211.441,354.447,211.335z"/>
					<path style="fill:#8C6EE0;" d="M348.134,226.258c1.1-0.402,1.256-19.769-5.898-23.237c-7.155-3.469-6.767,4.788-5.107,9.302
						C338.784,216.836,347.029,226.661,348.134,226.258z"/>
					<path style="fill:#8C6EE0;" d="M354.354,215.426c0.46,1.109,19.28,0.304,22.207-7.211c2.932-7.515-5.061-6.706-9.346-4.78
						C362.935,205.362,353.896,214.315,354.354,215.426z"/>
					<path style="fill:#8C6EE0;" d="M347.578,229.971c0.455,1.108,19.277,0.303,22.208-7.212c2.926-7.514-5.065-6.706-9.348-4.78
						C356.155,219.907,347.12,228.859,347.578,229.971z"/>
					<path style="fill:#C3B4EF;" d="M341.98,241.357c-0.712-0.958,9.347-17.281,17.164-16.14c7.82,1.141,3.152,7.841-0.612,10.683
						C354.77,238.748,342.691,242.319,341.98,241.357z"/>
					<path style="fill:#8C6EE0;" d="M333.341,256.823c-0.456-1.113,13.287-14.282,20.587-11.159c7.3,3.126,1.137,8.394-3.208,10.169
						C346.374,257.607,333.793,257.934,333.341,256.823z"/>
					<path style="fill:#8C6EE0;" d="M340.387,243.097c-1.105,0.397-13.211-14.514-9.811-21.817c3.399-7.299,8.207-0.649,9.715,3.917
						C341.799,229.765,341.488,242.7,340.387,243.097z"/>
					<path style="fill:#8C6EE0;" d="M333.287,259.162c-1.101,0.396-13.208-14.517-9.81-21.817c3.398-7.3,8.21-0.652,9.717,3.915
						C334.7,245.827,334.39,258.761,333.287,259.162z"/>
				</g>
				<path style="fill:none;stroke:#8C6EE0;stroke-width:2;stroke-linecap:round;stroke-linejoin:round;stroke-miterlimit:10;" d="
					M325.749,273.155c8.682-22.585,24.433-48.448,30.452-62.581c7.604-17.85,3.776-42.288,3.776-42.288"/>
			</g>
			<g>
				<g>
					<path style="fill:#8C6EE0;" d="M407.667,330.861c-1.085-3.637,13.777-13.402,20.96-9.967c7.184,3.438,0.476,8.262-4.093,9.77
						C419.965,332.175,408.75,334.495,407.667,330.861z"/>
					<path style="fill:#C3B4EF;" d="M398.419,337.033c0.223-1.164,19.207-4.758,23.723,1.717c4.513,6.469-3.649,7.554-8.336,6.713
						C409.118,344.621,398.194,338.194,398.419,337.033z"/>
					<path style="fill:#8C6EE0;" d="M382.999,342.318c0.514-1.074,19.689,0.133,22.378,7.556c2.687,7.42-5.441,6.45-9.732,4.468
						C391.352,352.363,382.488,343.395,382.999,342.318z"/>
					<path style="fill:#8C6EE0;" d="M394.362,336.837c-1.052-0.538,1.7-19.366,9.436-21.778c7.739-2.411,6.109,5.555,3.76,9.716
						C405.208,328.936,395.414,337.375,394.362,336.837z"/>
					<path style="fill:#8C6EE0;" d="M379.271,342.616c-1.049-0.538,1.698-19.368,9.436-21.781c7.738-2.407,6.112,5.557,3.759,9.717
						C390.114,334.717,380.322,343.151,379.271,342.616z"/>
					<path style="fill:#C3B4EF;" d="M367.249,342.475c0.554,1.032,19.649-1.803,22.044-9.44c2.395-7.639-5.679-5.98-9.889-3.637
						C375.195,331.737,366.694,341.445,367.249,342.475z"/>
					<path style="fill:#8C6EE0;" d="M351.045,342.526c0.801,0.854,18.675-6.606,19.056-14.547c0.381-7.942-7.061-4.343-10.56-1.045
						C356.041,330.228,350.241,341.669,351.045,342.526z"/>
					<path style="fill:#8C6EE0;" d="M363.45,343.995c-0.839,0.859,7.289,17.851,15.35,17.594c8.063-0.254,4.181-7.288,0.727-10.474
						C376.074,347.937,364.292,343.139,363.45,343.995z"/>
					<path style="fill:#8C6EE0;" d="M347.413,343.473c-0.84,0.854,7.289,17.849,15.351,17.594c8.06-0.259,4.18-7.29,0.727-10.474
						C360.036,347.41,348.255,342.615,347.413,343.473z"/>
					<path style="fill:#C3B4EF;" d="M334.743,342.795c0.602-1.031,19.563,1.813,21.582,9.45c2.021,7.64-5.974,5.977-10.066,3.631
						C342.164,353.533,334.137,343.826,334.743,342.795z"/>
					<path style="fill:#8C6EE0;" d="M317.128,340.921c0.844-0.857,18.352,6.613,18.344,14.552
						c-0.009,7.942-7.273,4.341-10.612,1.042C321.522,353.215,316.283,341.772,317.128,340.921z"/>
					<path style="fill:#8C6EE0;" d="M332.518,342.012c-0.8-0.86,8.162-17.848,16.214-17.588c8.047,0.261,3.819,7.293,0.211,10.472
						C345.333,338.077,333.315,342.869,332.518,342.012z"/>
					<path style="fill:#8C6EE0;" d="M314.955,341.789c-0.797-0.857,8.167-17.847,16.214-17.588c8.048,0.26,3.824,7.294,0.215,10.474
						C327.773,337.853,315.756,342.646,314.955,341.789z"/>
				</g>
				<path style="fill:none;stroke:#8C6EE0;stroke-width:2;stroke-linecap:round;stroke-linejoin:round;stroke-miterlimit:10;" d="
					M299.126,340.349c24.18-0.882,54.15,3.452,69.511,3.439c19.403-0.014,40.377-13.128,40.377-13.128"/>
			</g>
			<g>
				<path style="fill:#B5A4EB;" d="M63.432,262.956c0,0,15.473,14.587,24.521,31.255c9.047,16.675,29.79,42.67,52.012,42.88
					c22.22,0.206,56.638-11.103,56.638-11.103s-8.719-9.026-17.683-19.419c-5.886-6.825-8.334-8.611-19.61-21.007
					c-11.277-12.397-28.392-20.046-39.392-22.606C96.407,257.48,63.432,262.956,63.432,262.956z"/>
				<g>
					<g>
						<path style="fill:#977FE3;" d="M194.515,325.428c0,0-0.527-0.133-1.517-0.384c-0.989-0.25-2.438-0.628-4.269-1.148
							c-3.669-1.023-8.878-2.588-15.061-4.7c-3.084-1.072-6.417-2.27-9.91-3.631c-3.479-1.397-7.151-2.883-10.861-4.659
							c-3.733-1.742-7.454-3.873-11.135-6.059c-3.679-2.216-7.355-4.539-11.031-6.854c-3.665-2.324-7.329-4.648-10.937-6.935
							c-3.602-2.289-7.179-4.485-10.636-6.611c-3.461-2.122-6.84-4.113-10.078-5.935c-3.227-1.843-6.325-3.498-9.229-4.935
							c-5.792-2.9-10.846-4.848-14.512-5.759c-1.831-0.459-3.304-0.685-4.315-0.773c-0.505-0.049-0.895-0.066-1.158-0.07
							c-0.263-0.008-0.399-0.013-0.399-0.013s0.136-0.008,0.398-0.022c0.263-0.019,0.653-0.037,1.165-0.033
							c1.021,0.003,2.526,0.085,4.415,0.405c1.884,0.334,4.154,0.87,6.69,1.692c2.538,0.818,5.351,1.886,8.361,3.181
							c3.002,1.312,6.207,2.834,9.547,4.536c3.332,1.717,6.799,3.612,10.352,5.624c3.558,2.005,7.169,4.181,10.837,6.388
							c3.669,2.206,7.365,4.492,11.046,6.792c3.686,2.292,7.373,4.572,11.024,6.755c3.65,2.206,7.232,4.273,10.859,6.02
							c3.628,1.753,7.172,3.411,10.584,4.879c3.415,1.463,6.639,2.872,9.654,4.083c6,2.502,11.047,4.497,14.569,5.929
							C192.499,324.613,194.515,325.428,194.515,325.428z"/>
					</g>
					<g>
						<path style="fill:#977FE3;" d="M98.906,262.009c1.829,1.792,3.553,3.682,5.256,5.592c1.685,1.925,3.334,3.885,4.907,5.911
							c1.592,2.012,3.08,4.107,4.498,6.273c0.695,1.093,1.354,2.215,1.955,3.391c0.584,1.188,1.161,2.392,1.407,3.891l0.218,1.33
							l-1.362-0.214c-2.336-0.367-4.733-0.618-7.11-0.837c-2.381-0.226-4.769-0.351-7.155-0.415
							c-2.384-0.036-4.775-0.007-7.134,0.285c-0.593,0.061-1.178,0.157-1.764,0.26c-0.585,0.107-1.16,0.247-1.736,0.397
							c-0.57,0.164-1.134,0.355-1.683,0.589c-0.55,0.232-1.075,0.521-1.58,0.858c0.441-0.414,0.922-0.794,1.442-1.121
							c0.524-0.319,1.076-0.591,1.639-0.841c0.566-0.24,1.147-0.445,1.735-0.625c0.589-0.173,1.182-0.341,1.781-0.472
							c1.198-0.268,2.411-0.459,3.627-0.6c1.215-0.147,2.437-0.225,3.656-0.276c2.441-0.119,4.88-0.04,7.312,0.085
							c2.436,0.147,4.842,0.4,7.281,0.741l-1.145,1.115c-0.095-0.508-0.229-1.06-0.451-1.615c-0.205-0.554-0.459-1.11-0.729-1.662
							c-0.543-1.104-1.173-2.186-1.819-3.262c-1.279-2.164-2.723-4.248-4.147-6.348C104.91,270.27,101.893,266.163,98.906,262.009z"
							/>
					</g>
					<g>
						<path style="fill:#977FE3;" d="M122.604,269.752c1.432,2.152,2.72,4.385,4.05,6.598c1.285,2.237,2.537,4.495,3.72,6.791
							c1.206,2.286,2.309,4.624,3.375,6.994c0.519,1.192,1.006,2.4,1.457,3.636c0.439,1.245,0.869,2.487,1.087,3.914l0.134,0.876
							l-0.876,0.221c-2.782,0.701-5.564,1.483-8.336,2.264c-2.778,0.77-5.535,1.607-8.29,2.445
							c-2.747,0.864-5.489,1.748-8.184,2.754c-1.354,0.487-2.691,1.018-4.002,1.611c-0.656,0.296-1.302,0.612-1.933,0.957
							c-0.642,0.328-1.254,0.707-1.85,1.121c1.055-1,2.284-1.811,3.542-2.542c1.26-0.733,2.554-1.407,3.867-2.037
							c2.637-1.236,5.335-2.33,8.063-3.328c2.722-1.018,5.486-1.909,8.253-2.784c2.774-0.86,5.561-1.642,8.377-2.395l-0.743,1.097
							c-0.172-1.121-0.544-2.338-0.954-3.52c-0.413-1.189-0.885-2.37-1.364-3.55c-0.94-2.371-2.008-4.701-3.036-7.052l-3.186-7.02
							C124.746,274.441,123.633,272.122,122.604,269.752z"/>
					</g>
					<g>
						<path style="fill:#977FE3;" d="M145.799,278.957c1.533,2.67,2.924,5.412,4.361,8.132c1.391,2.743,2.752,5.501,4.049,8.292
							c1.32,2.781,2.541,5.607,3.734,8.456c0.583,1.43,1.14,2.873,1.659,4.341c0.257,0.735,0.505,1.477,0.733,2.234
							c0.218,0.766,0.438,1.528,0.559,2.389l0.133,0.957l-0.96,0.157c-3.034,0.497-6.075,1.08-9.104,1.67
							c-3.034,0.577-6.051,1.231-9.064,1.893c-3.007,0.69-6.007,1.412-8.964,2.279c-1.48,0.427-2.95,0.892-4.387,1.444
							c-0.719,0.275-1.429,0.574-2.118,0.916c-0.704,0.317-1.366,0.71-2.007,1.151c0.577-0.516,1.197-1.002,1.862-1.411
							c0.66-0.42,1.352-0.786,2.051-1.134c1.398-0.697,2.837-1.308,4.289-1.881c2.919-1.102,5.895-2.037,8.896-2.863
							c2.997-0.845,6.026-1.553,9.059-2.235c3.04-0.669,6.085-1.252,9.16-1.797l-0.826,1.114c-0.102-0.66-0.282-1.383-0.482-2.093
							c-0.207-0.715-0.439-1.432-0.681-2.148c-0.486-1.433-1.032-2.857-1.578-4.282c-1.071-2.859-2.26-5.683-3.403-8.527
							l-3.51-8.508C148.131,284.646,146.919,281.825,145.799,278.957z"/>
					</g>
				</g>
			</g>
			<g>
				<path style="fill:#CBBFF1;" d="M118.272,172.374c0,0,3.459,10.921,3.098,18.596c-0.362,7.67,2.479,45.928,24.685,54.524
					c21.591,8.356,40.104,22.125,40.104,22.125s-7.32-27.833-8.655-40.219c-1.545-14.335-13.848-33.739-27.199-44.484
					C139.436,174.178,127.978,169.393,118.272,172.374z"/>
				<g>
					<g>
						<path style="fill:#AD9AE9;" d="M184.968,265.107c0,0-0.902-1.509-2.482-4.149c-0.778-1.325-1.723-2.934-2.807-4.779
							c-1.074-1.848-2.287-3.933-3.609-6.208c-1.318-2.273-2.747-4.735-4.258-7.339c-1.508-2.606-3.105-5.34-4.79-8.148
							c-1.718-2.791-3.431-5.656-5.325-8.564c-1.857-2.906-3.744-5.858-5.631-8.81c-1.883-2.951-3.822-5.863-5.708-8.743
							c-1.893-2.876-3.789-5.681-5.667-8.364c-3.718-5.393-7.353-10.308-10.668-14.354c-1.666-2.015-3.227-3.835-4.686-5.378
							c-1.462-1.54-2.795-2.825-3.94-3.837c-1.161-0.988-2.108-1.731-2.785-2.195c-0.686-0.454-1.052-0.696-1.052-0.696
							s0.393,0.198,1.129,0.57c0.727,0.392,1.776,1.005,3.047,1.892c1.245,0.915,2.743,2.059,4.341,3.508
							c1.592,1.452,3.348,3.138,5.153,5.079c3.64,3.857,7.546,8.649,11.52,13.928c1.968,2.654,3.955,5.427,5.938,8.269
							c1.989,2.838,3.919,5.78,5.852,8.718c1.931,2.938,3.829,5.896,5.656,8.828c0.921,1.458,1.832,2.909,2.701,4.385
							c0.866,1.469,1.778,2.897,2.55,4.355c1.586,2.899,3.147,5.685,4.502,8.386c1.382,2.69,2.669,5.239,3.807,7.618
							C182.357,258.566,184.968,265.107,184.968,265.107z"/>
					</g>
					<g>
						<path style="fill:#AD9AE9;" d="M144.091,182.054c0.757,1.525,1.38,3.106,1.976,4.7c0.572,1.6,1.096,3.222,1.524,4.877
							c0.449,1.651,0.767,3.34,0.99,5.071c0.1,0.867,0.141,1.751,0.116,2.656c-0.038,0.905-0.122,1.843-0.511,2.822l-0.372,0.934
							l-0.937-0.401c-1.724-0.738-3.513-1.412-5.286-2.077c-1.773-0.677-3.57-1.284-5.368-1.884
							c-1.804-0.577-3.618-1.13-5.461-1.553c-0.92-0.223-1.849-0.398-2.786-0.537c-0.938-0.129-1.886-0.211-2.847-0.156
							c0.465-0.123,0.94-0.218,1.423-0.286c0.482-0.056,0.968-0.087,1.455-0.103c0.974-0.026,1.945,0.041,2.913,0.127
							c1.933,0.206,3.843,0.561,5.722,1.021c1.887,0.437,3.733,1.009,5.571,1.598c1.837,0.607,3.631,1.284,5.441,2.014l-1.309,0.533
							c0.105-0.305,0.216-0.631,0.273-0.999c0.066-0.36,0.104-0.744,0.122-1.133c0.039-0.78,0.008-1.587-0.054-2.399
							c-0.097-1.629-0.374-3.268-0.631-4.916C145.486,188.672,144.77,185.382,144.091,182.054z"/>
					</g>
					<g>
						<path style="fill:#AD9AE9;" d="M156.345,194.164c0.579,1.761,1.027,3.555,1.451,5.355c0.401,1.805,0.759,3.622,1.028,5.459
							c0.292,1.835,0.458,3.689,0.556,5.57c0.03,0.942,0.019,1.891-0.052,2.857c-0.036,0.483-0.087,0.97-0.182,1.468
							c-0.082,0.493-0.219,1.009-0.424,1.527l-0.327,0.825l-0.867-0.252c-2.219-0.644-4.476-1.229-6.721-1.818
							c-2.245-0.601-4.503-1.142-6.759-1.694c-2.261-0.526-4.525-1.045-6.806-1.458c-1.139-0.223-2.285-0.393-3.436-0.535
							c-1.15-0.129-2.309-0.231-3.478-0.151c2.296-0.55,4.7-0.421,7.037-0.275c2.346,0.191,4.678,0.503,6.99,0.904
							c2.317,0.38,4.609,0.877,6.897,1.383c2.288,0.521,4.548,1.108,6.822,1.726l-1.194,0.574c0.264-0.671,0.416-1.531,0.495-2.391
							c0.083-0.867,0.099-1.759,0.101-2.655c0.02-1.798-0.113-3.613-0.215-5.435C157.005,201.506,156.641,197.851,156.345,194.164z"
							/>
					</g>
					<g>
						<path style="fill:#AD9AE9;" d="M169.891,212.921c0.332,1.764,0.536,3.542,0.723,5.323c0.163,1.782,0.288,3.57,0.334,5.364
							c0.07,1.795,0.021,3.593-0.074,5.406c-0.061,0.906-0.163,1.814-0.306,2.731c-0.153,0.917-0.327,1.841-0.714,2.803
							l-0.312,0.776l-0.826-0.188c-2.49-0.569-5.009-1.084-7.518-1.607c-2.508-0.537-5.027-1.016-7.542-1.516
							c-2.519-0.473-5.039-0.945-7.571-1.327c-1.265-0.2-2.534-0.363-3.807-0.496c-1.273-0.12-2.552-0.223-3.839-0.128
							c1.258-0.3,2.565-0.387,3.859-0.418c1.297-0.032,2.593,0.018,3.887,0.079c2.584,0.157,5.158,0.419,7.718,0.765
							c2.564,0.324,5.108,0.757,7.651,1.195c2.542,0.452,5.064,0.969,7.598,1.506l-1.138,0.587c0.277-0.692,0.477-1.521,0.624-2.356
							c0.149-0.839,0.253-1.701,0.341-2.569c0.206-1.735,0.281-3.498,0.399-5.263C169.563,220.053,169.679,216.498,169.891,212.921z
							"/>
					</g>
				</g>
			</g>
			<g>
				<g>
					<path style="fill:#8C6EE0;" d="M106.698,349.707c0.203-3.79-16.535-9.8-22.712-4.776c-6.178,5.024,1.473,8.143,6.27,8.538
						C95.051,353.867,106.497,353.493,106.698,349.707z"/>
					<path style="fill:#C3B4EF;" d="M117.135,353.539c-0.49-1.079-19.787-0.123-22.66,7.229c-2.871,7.347,5.319,6.488,9.677,4.572
						C108.512,363.423,117.625,354.615,117.135,353.539z"/>
					<path style="fill:#8C6EE0;" d="M133.365,355.062c-0.751-0.923-19.11,4.746-19.984,12.591c-0.873,7.843,6.8,4.996,10.508,2.064
						C127.599,366.786,134.113,355.989,133.365,355.062z"/>
					<path style="fill:#8C6EE0;" d="M121.033,352.397c0.896-0.77-6.191-18.428-14.276-18.96c-8.089-0.529-4.639,6.833-1.379,10.327
						C108.637,347.258,120.137,353.167,121.033,352.397z"/>
					<path style="fill:#8C6EE0;" d="M137.059,354.478c0.893-0.77-6.191-18.43-14.279-18.963c-8.087-0.526-4.638,6.835-1.377,10.328
						C124.666,349.341,136.162,355.245,137.059,354.478z"/>
					<path style="fill:#C3B4EF;" d="M148.711,351.523c-0.296,1.132-19.523,2.852-23.642-4.01c-4.119-6.865,4.119-7.145,8.76-5.853
						C138.471,342.947,149.01,350.392,148.711,351.523z"/>
					<path style="fill:#8C6EE0;" d="M164.477,347.775c-0.58,1.017-19.704-2.045-21.936-9.675c-2.232-7.632,5.846-5.878,10.02-3.492
						C156.737,336.991,165.057,346.752,164.477,347.775z"/>
					<path style="fill:#8C6EE0;" d="M152.761,352.111c1.017,0.638-2.902,19.062-10.799,20.701c-7.897,1.644-5.772-6.104-3.161-10.01
						C141.413,358.901,151.743,351.475,152.761,352.111z"/>
					<path style="fill:#8C6EE0;" d="M168.23,347.844c1.017,0.633-2.903,19.059-10.8,20.702c-7.896,1.638-5.772-6.108-3.161-10.012
						C156.881,354.631,167.21,347.208,168.23,347.844z"/>
					<path style="fill:#C3B4EF;" d="M180.388,344.215c-0.826-0.861-18.593,6.348-18.766,14.246c-0.173,7.9,7.21,4.41,10.637,1.171
						C175.691,356.394,181.218,345.075,180.388,344.215z"/>
					<path style="fill:#8C6EE0;" d="M197.074,338.264c-1.022-0.635-16.291,10.731-14.423,18.447
						c1.871,7.719,8.089,2.516,10.562-1.474C195.683,351.246,198.094,338.894,197.074,338.264z"/>
					<path style="fill:#8C6EE0;" d="M182.368,342.932c0.576-1.024-12.119-15.438-19.884-13.298c-7.762,2.14-2.003,7.985,2.249,10.23
						C168.986,342.11,181.794,343.953,182.368,342.932z"/>
					<path style="fill:#8C6EE0;" d="M199.389,338.599c0.574-1.021-12.122-15.436-19.885-13.297
						c-7.763,2.139-2.007,7.987,2.247,10.232C186.005,337.778,198.81,339.619,199.389,338.599z"/>
				</g>
				<path style="fill:none;stroke:#8C6EE0;stroke-width:2;stroke-linecap:round;stroke-linejoin:round;stroke-miterlimit:10;" d="
					M214.439,333.489c-23.713,4.81-51.833,16.049-66.769,19.637c-18.865,4.534-42.329-3.299-42.329-3.299"/>
			</g>
		</g>
		<g>
			<path style="fill:#E6E6E6;" d="M358.367,398.795c0,8.221-48.518,14.886-108.367,14.886s-108.367-6.665-108.367-14.886
				c0-8.223,48.518-14.888,108.367-14.888S358.367,390.572,358.367,398.795z"/>
			<g>
				<path style="fill:#CACACA;" d="M313.607,398.647c13.868-0.01,25.141-11.297,25.129-25.167l-0.201-275.329
					c-0.01-13.869-11.297-25.142-25.165-25.132l-126.976,0.084c-13.867,0.011-25.141,11.3-25.132,25.17l0.203,275.331
					c0.009,13.868,11.301,25.137,25.167,25.126L313.607,398.647z"/>
				<path style="fill:#292929;" d="M313.607,397.082c13-0.012,23.571-10.596,23.561-23.602l-0.2-275.328
					c-0.011-13.004-10.596-23.574-23.598-23.567l-126.975,0.084c-13.003,0.01-23.575,10.597-23.565,23.6l0.201,275.33
					c0.011,13.006,10.6,23.575,23.601,23.563L313.607,397.082z"/>
				<g>
					<path style="fill:#E6E6E6;" d="M173.591,371.769c0.004,6.632,5.434,12.054,12.066,12.049l128.888-0.087
						c6.632-0.004,12.054-5.434,12.049-12.066l-0.188-271.686c-0.004-6.632-5.434-12.054-12.066-12.05l-128.888,0.086
						c-6.632,0.004-12.054,5.434-12.049,12.065L173.591,371.769z"/>
				</g>
				<g>
					<g>
						<rect x="161.456" y="372.955" style="fill:#888A9A;" width="1.569" height="1.048"/>
						
							<rect x="337.168" y="372.775" transform="matrix(1 -0.0016 0.0016 1 -0.5946 0.5392)" style="fill:#888A9A;" width="1.569" height="1.045"/>
						<rect x="161.266" y="103.083" style="fill:#888A9A;" width="1.573" height="1.047"/>
					</g>
				</g>
				<g>
					<path style="fill:#E6E6E6;" d="M173.591,371.769c0.004,6.632,5.434,12.054,12.066,12.049l128.888-0.087
						c6.632-0.004,12.054-5.434,12.049-12.066l-0.188-271.686c-0.004-6.632-5.434-12.054-12.066-12.05l-128.888,0.086
						c-6.632,0.004-12.054,5.434-12.049,12.065L173.591,371.769z"/>
				</g>
				<g>
					<g>
						<g>
							<rect x="181.653" y="285.753" style="fill:#CCCCCC;" width="32.719" height="33.757"/>
							<rect x="181.653" y="327.3" style="fill:#CCCCCC;" width="32.719" height="33.757"/>
							<rect x="222.682" y="285.753" style="fill:#CCCCCC;" width="95.558" height="33.757"/>
							<rect x="222.682" y="327.3" style="fill:#CCCCCC;" width="95.558" height="33.757"/>
						</g>
						<path style="fill:#A388D8;" d="M283.184,377.478c0,1.256-1.018,2.274-2.274,2.274h-61.927c-1.256,0-2.273-1.018-2.273-2.274
							v-7.069c0-1.256,1.018-2.273,2.273-2.273h61.927c1.256,0,2.274,1.017,2.274,2.273V377.478z"/>
						<g>
							<path style="fill:#FFFFFF;" d="M320.915,274.311c0,2.447-1.983,4.431-4.431,4.431H183.407c-2.446,0-4.431-1.984-4.431-4.431
								v-23.596c0-2.447,1.984-4.431,4.431-4.431h133.077c2.447,0,4.431,1.984,4.431,4.431V274.311z"/>
							<g>
								<g>
									<rect x="217.986" y="252.645" style="fill:#CCCCCC;" width="94.072" height="2.597"/>
									<rect x="217.986" y="261.214" style="fill:#CCCCCC;" width="94.072" height="2.597"/>
									<rect x="217.986" y="269.784" style="fill:#CCCCCC;" width="94.072" height="2.597"/>
								</g>
								<path style="fill:#BF00A2;" d="M210.89,262.513c0,6.367-5.162,11.528-11.527,11.528c-6.367,0-11.528-5.161-11.528-11.528
									c0-6.366,5.161-11.528,11.528-11.528C205.728,250.985,210.89,256.147,210.89,262.513z"/>
							</g>
						</g>
					</g>
					<g>
						<rect x="173.444" y="87.97" style="fill:#A388D8;" width="153.003" height="150.399"/>
						<rect x="238.945" y="146.999" style="fill:#BF00A2;" width="21.918" height="22.551"/>
						<g>
							<defs>
								<rect id="SVGID_1_" x="173.444" y="87.97" width="153.003" height="150.399"/>
							</defs>
							<clipPath id="SVGID_00000110430288660996777340000012228625397222280834_">
								<use xlink:href="#SVGID_1_"  style="overflow:visible;"/>
							</clipPath>
							
								<rect x="194.021" y="122.163" style="clip-path:url(#SVGID_00000110430288660996777340000012228625397222280834_);fill:#E6E6E6;" width="0.646" height="124.64"/>
							
								<rect x="216.131" y="122.163" style="clip-path:url(#SVGID_00000110430288660996777340000012228625397222280834_);fill:#E6E6E6;" width="0.646" height="124.64"/>
							
								<rect x="238.241" y="122.163" style="clip-path:url(#SVGID_00000110430288660996777340000012228625397222280834_);fill:#E6E6E6;" width="0.645" height="124.64"/>
							
								<rect x="260.351" y="122.163" style="clip-path:url(#SVGID_00000110430288660996777340000012228625397222280834_);fill:#E6E6E6;" width="0.646" height="124.64"/>
							
								<rect x="282.461" y="122.163" style="clip-path:url(#SVGID_00000110430288660996777340000012228625397222280834_);fill:#E6E6E6;" width="0.644" height="124.64"/>
							
								<rect x="304.569" y="122.163" style="clip-path:url(#SVGID_00000110430288660996777340000012228625397222280834_);fill:#E6E6E6;" width="0.646" height="124.64"/>
							
								<rect x="170.51" y="146.56" style="clip-path:url(#SVGID_00000110430288660996777340000012228625397222280834_);fill:#E6E6E6;" width="164.116" height="0.646"/>
							
								<rect x="170.51" y="169.549" style="clip-path:url(#SVGID_00000110430288660996777340000012228625397222280834_);fill:#E6E6E6;" width="164.116" height="0.646"/>
							
								<rect x="170.51" y="192.539" style="clip-path:url(#SVGID_00000110430288660996777340000012228625397222280834_);fill:#E6E6E6;" width="164.116" height="0.646"/>
							
								<rect x="170.51" y="215.528" style="clip-path:url(#SVGID_00000110430288660996777340000012228625397222280834_);fill:#E6E6E6;" width="164.116" height="0.646"/>
							<g style="clip-path:url(#SVGID_00000110430288660996777340000012228625397222280834_);">
								<g>
									
										<text transform="matrix(1 0 0 1 197.1905 133.7891)" style="fill:#FFFFFF; font-family:'SinkinSans-500Medium'; font-size:7.6102px;">1</text>
									
										<text transform="matrix(1 0 0 1 219.0117 133.7891)" style="fill:#FFFFFF; font-family:'SinkinSans-500Medium'; font-size:7.6102px;">2</text>
									
										<text transform="matrix(1 0 0 1 240.9058 133.7891)" style="fill:#FFFFFF; font-family:'SinkinSans-500Medium'; font-size:7.6102px;">3</text>
									
										<text transform="matrix(1 0 0 1 262.8262 133.7891)" style="fill:#FFFFFF; font-family:'SinkinSans-500Medium'; font-size:7.6102px;">4</text>
									
										<text transform="matrix(1 0 0 1 284.6592 133.7891)" style="fill:#FFFFFF; font-family:'SinkinSans-500Medium'; font-size:7.6102px;">5</text>
									
										<text transform="matrix(1 0 0 1 306.9292 133.7891)" style="fill:#FFFFFF; font-family:'SinkinSans-500Medium'; font-size:7.6102px;">6</text>
								</g>
								<g>
									
										<text transform="matrix(1 0 0 1 176.3164 156.5098)" style="fill:#FFFFFF; font-family:'SinkinSans-500Medium'; font-size:7.6102px;">7</text>
									
										<text transform="matrix(1 0 0 1 197.1905 156.5098)" style="fill:#FFFFFF; font-family:'SinkinSans-500Medium'; font-size:7.6102px;">8</text>
									
										<text transform="matrix(1 0 0 1 219.0117 156.5098)" style="fill:#FFFFFF; font-family:'SinkinSans-500Medium'; font-size:7.6102px;">9</text>
									
										<text transform="matrix(1 0 0 1 240.9058 156.5098)" style="fill:#FFFFFF; font-family:'SinkinSans-500Medium'; font-size:7.6102px;">10</text>
									
										<text transform="matrix(1 0 0 1 262.8262 156.5098)" style="fill:#FFFFFF; font-family:'SinkinSans-500Medium'; font-size:7.6102px;">11</text>
									
										<text transform="matrix(1 0 0 1 284.6592 156.5098)" style="fill:#FFFFFF; font-family:'SinkinSans-500Medium'; font-size:7.6102px;">12</text>
									
										<text transform="matrix(1 0 0 1 306.9292 156.5098)" style="fill:#FFFFFF; font-family:'SinkinSans-500Medium'; font-size:7.6102px;">13</text>
								</g>
								<g>
									
										<text transform="matrix(1 0 0 1 176.3164 179.231)" style="fill:#FFFFFF; font-family:'SinkinSans-500Medium'; font-size:7.6102px;">14</text>
									
										<text transform="matrix(1 0 0 1 197.1905 179.231)" style="fill:#FFFFFF; font-family:'SinkinSans-500Medium'; font-size:7.6102px;">15</text>
									
										<text transform="matrix(1 0 0 1 219.0117 179.231)" style="fill:#FFFFFF; font-family:'SinkinSans-500Medium'; font-size:7.6102px;">16</text>
									
										<text transform="matrix(1 0 0 1 240.9058 179.231)" style="fill:#FFFFFF; font-family:'SinkinSans-500Medium'; font-size:7.6102px;">17</text>
									
										<text transform="matrix(1 0 0 1 262.8262 179.231)" style="fill:#FFFFFF; font-family:'SinkinSans-500Medium'; font-size:7.6102px;">18</text>
									
										<text transform="matrix(1 0 0 1 284.6592 179.231)" style="fill:#FFFFFF; font-family:'SinkinSans-500Medium'; font-size:7.6102px;">19</text>
									
										<text transform="matrix(1 0 0 1 306.9292 179.231)" style="fill:#FFFFFF; font-family:'SinkinSans-500Medium'; font-size:7.6102px;">20</text>
								</g>
								<g>
									
										<text transform="matrix(1 0 0 1 176.3164 201.9516)" style="fill:#FFFFFF; font-family:'SinkinSans-500Medium'; font-size:7.6102px;">21</text>
									
										<text transform="matrix(1 0 0 1 197.1905 201.9516)" style="fill:#FFFFFF; font-family:'SinkinSans-500Medium'; font-size:7.6102px;">22</text>
									
										<text transform="matrix(1 0 0 1 219.0117 201.9516)" style="fill:#FFFFFF; font-family:'SinkinSans-500Medium'; font-size:7.6102px;">23</text>
									
										<text transform="matrix(1 0 0 1 240.9058 201.9516)" style="fill:#FFFFFF; font-family:'SinkinSans-500Medium'; font-size:7.6102px;">24</text>
									
										<text transform="matrix(1 0 0 1 262.8262 201.9516)" style="fill:#FFFFFF; font-family:'SinkinSans-500Medium'; font-size:7.6102px;">25</text>
									
										<text transform="matrix(1 0 0 1 284.6592 201.9516)" style="fill:#FFFFFF; font-family:'SinkinSans-500Medium'; font-size:7.6102px;">26</text>
									
										<text transform="matrix(1 0 0 1 306.9292 201.9516)" style="fill:#FFFFFF; font-family:'SinkinSans-500Medium'; font-size:7.6102px;">27</text>
								</g>
								<g>
									
										<text transform="matrix(1 0 0 1 176.3164 224.6729)" style="fill:#FFFFFF; font-family:'SinkinSans-500Medium'; font-size:7.6102px;">28</text>
									
										<text transform="matrix(1 0 0 1 197.1905 224.6729)" style="fill:#FFFFFF; font-family:'SinkinSans-500Medium'; font-size:7.6102px;">29</text>
									
										<text transform="matrix(1 0 0 1 219.0117 224.6729)" style="fill:#FFFFFF; font-family:'SinkinSans-500Medium'; font-size:7.6102px;">30</text>
								</g>
							</g>
						</g>
						<polyline style="fill:none;stroke:#FFFF00;stroke-width:3;stroke-miterlimit:10;" points="248.504,158.663 252.918,163.857 
							263.564,152.691 						"/>
						<rect x="173.403" y="87.968" style="fill:#8154D8;" width="153.003" height="36.844"/>
						<g>
							<g>
								<polygon style="fill:#FFFFFF;" points="307.421,108.924 317.459,114.718 307.421,120.513 								"/>
								<polygon style="fill:#FFFFFF;" points="192.471,120.513 182.434,114.718 192.471,108.924 								"/>
							</g>
							
								<text transform="matrix(1 0 0 1 229.5923 118.3765)" style="fill:#FFFFFF; font-family:'SinkinSans-600SemiBold'; font-size:12.464px;">JUNE</text>
						</g>
					</g>
				</g>
				<g style="opacity:0.2;">
					<defs>
						<path id="SVGID_00000132074800406446185030000001049445220564300193_" style="opacity:0.2;" d="M313.607,397.082
							c13-0.012,23.571-10.596,23.561-23.602l-0.2-275.328c-0.011-13.004-10.596-23.574-23.598-23.567l-126.975,0.084
							c-13.003,0.01-23.575,10.597-23.565,23.6l0.201,275.33c0.011,13.006,10.6,23.575,23.601,23.563L313.607,397.082z"/>
					</defs>
					<clipPath id="SVGID_00000070825234730087774470000017274712675367985579_">
						<use xlink:href="#SVGID_00000132074800406446185030000001049445220564300193_"  style="overflow:visible;"/>
					</clipPath>
					<g style="clip-path:url(#SVGID_00000070825234730087774470000017274712675367985579_);">
						
							<rect x="107.754" y="253.974" transform="matrix(0.8043 -0.5942 0.5942 0.8043 -113.3443 227.4583)" style="fill:#FFFFFF;" width="361.873" height="63.705"/>
						
							<rect x="30.199" y="155.564" transform="matrix(0.8043 -0.5942 0.5942 0.8043 -66.1377 160.8324)" style="fill:#FFFFFF;" width="361.873" height="50.548"/>
						
							<rect x="71.959" y="226.291" transform="matrix(0.8044 -0.5941 0.5941 0.8044 -91.5547 196.6948)" style="fill:#FFFFFF;" width="361.874" height="22.158"/>
					</g>
				</g>
				<path style="fill:#212121;" d="M209.96,87.921l1.458,6.563c0,0,1.102,9.364,8.262,9.364h60.638c7.16,0,8.262-9.364,8.262-9.364
					l1.459-6.563H209.96z"/>
			</g>
		</g>
		<g>
			<g>
				<path style="fill:#E6E6E6;" d="M422.655,122.336H289.58c-2.446,0-4.431,1.984-4.431,4.431v23.596
					c0,2.447,1.984,4.431,4.431,4.431h133.076c2.449,0,4.43-1.984,4.43-4.431v-23.596
					C427.085,124.32,425.104,122.336,422.655,122.336z"/>
				<g>
					<path style="fill:#ECEEFD;" d="M422.585,145.169c0,2.447-1.982,4.431-4.43,4.431H285.079c-2.446,0-4.431-1.984-4.431-4.431
						v-23.596c0-2.447,1.984-4.431,4.431-4.431h133.077c2.447,0,4.43,1.984,4.43,4.431V145.169z"/>
					<g>
						<g>
							<rect x="319.657" y="123.504" style="fill:#A497EA;" width="94.073" height="2.597"/>
							<rect x="319.657" y="132.073" style="fill:#A497EA;" width="94.073" height="2.597"/>
							<rect x="319.657" y="140.642" style="fill:#A497EA;" width="94.073" height="2.597"/>
						</g>
						<path style="fill:#7239A2;" d="M312.561,133.372c0,6.366-5.162,11.528-11.528,11.528c-6.367,0-11.527-5.162-11.527-11.528
							c0-6.367,5.161-11.528,11.527-11.528C307.399,121.844,312.561,127.005,312.561,133.372z"/>
					</g>
				</g>
			</g>
			<g>
				<path style="fill:#E6E6E6;" d="M196.226,303.064H81.846c-2.446,0-4.431,1.984-4.431,4.431v23.596
					c0,2.447,1.984,4.431,4.431,4.431h114.38c2.449,0,4.431-1.984,4.431-4.431v-23.596
					C200.657,305.048,198.675,303.064,196.226,303.064z"/>
				<g>
					<path style="fill:#ECEEFD;" d="M196.156,325.897c0,2.447-1.982,4.431-4.431,4.431H77.345c-2.447,0-4.431-1.984-4.431-4.431
						v-23.596c0-2.447,1.984-4.431,4.431-4.431h114.38c2.449,0,4.431,1.984,4.431,4.431V325.897z"/>
					<g>
						<g>
							<rect x="111.923" y="304.232" style="fill:#A497EA;" width="75.377" height="2.597"/>
							<rect x="111.923" y="312.801" style="fill:#A497EA;" width="75.377" height="2.597"/>
							<rect x="111.923" y="321.37" style="fill:#A497EA;" width="75.377" height="2.597"/>
						</g>
						<circle style="fill:#7239A2;" cx="93.299" cy="314.1" r="11.528"/>
					</g>
				</g>
			</g>
		</g>
		<g>
			<path style="fill:#E6E6E6;" d="M419.473,453.153c0,7.648-34.38,13.849-76.79,13.849c-42.41,0-76.791-6.2-76.791-13.849
				c0-7.65,34.381-13.851,76.791-13.851C385.092,439.303,419.473,445.503,419.473,453.153z"/>
			<g>
				<path style="fill:#FACCBB;" d="M360.779,214.861c2.715,3.258,5.973,20.09,4.887,34.751
					c-1.086,14.661-27.693,23.891-27.693,23.891S358.064,211.604,360.779,214.861z"/>
				<g>
					<g>
						<g>
							<path style="fill:#FACCBB;" d="M380.878,391.139l16.4,21.15c0,0-2.234,4.175-6.847,6.835
								c-4.619,2.658-8.853,0.891-8.853,0.891s-6.652-11.539-11.364-16.676L380.878,391.139z"/>
							<g>
								<path style="fill:#7239A2;" d="M396.12,409.19c1.028-0.347,4.566,4.699,5.904,6.474c1.337,1.768,7.073,6.136,5.231,9.613
									c-1.271,2.396-6.288,5.104-7.839,6.27c-1.547,1.178-3.325,1.125-5.261,2.245c-1.941,1.117-4.319,3.954-4.815,4.681
									c-0.495,0.722-1.183,4.373-9.39,9.182c-8.206,4.816-11.387,1.305-13.397-2.399c-2.007-3.698,2.339-5.596,5.123-9.442
									c2.095-2.885,4.579-7.286,5.076-9.396c0.488-2.116,0.53-9.453,2.542-8.882c2.005,0.568,7.084-0.237,9.796-1.739
									C393.326,413.448,395.097,409.539,396.12,409.19z"/>
								<path style="fill:none;stroke:#A7939D;stroke-miterlimit:10;" d="M404.984,421.42c0,0-1.705,3.732-5.913,6.914
									c-4.205,3.177-7.37,3.135-9.581,6.198c-2.209,3.058-4.202,6.429-7.905,9.797c-4.533,4.125-10.474,4.093-10.474,4.093"/>
								<path style="fill:none;stroke:#A7939D;stroke-miterlimit:10;" d="M381.682,425.118c0,0-3.168-1.43-4.498-0.429"/>
								<path style="fill:none;stroke:#A7939D;stroke-miterlimit:10;" d="M380.363,428.898c0,0-3.171-1.433-4.495-0.426"/>
							</g>
						</g>
						<path style="fill:#314054;" d="M326.045,355.225c0,0-4.948-12.599-7.5-37.196c-1.874-18.072-4.511-39.657-4.511-39.657
							l18.484-0.942c6.354-0.403,20.536,4.205,20.536,4.205s3.457,6.259,4.939,12.35c1.48,6.091-1.493,21.012-2.273,27.168
							c-1.357,10.684,1.622,26.25,1.622,26.25S336.693,359.661,326.045,355.225z"/>
						<path style="fill:#314054;" d="M350.046,382.54c4.607,5.23,20.94,22.776,20.94,22.776s3.574,1.254,8.402-2.586
							c4.833-3.837,6.411-7.169,6.411-7.169s-7.574-15.1-11.689-22.408c-3.028-5.378-6.48-20.878-11.017-27.03
							c-5.23-7.078-13.566-13.228-13.566-13.228s-26.725,12.73-24.755,19.161C326.739,358.486,341.519,372.86,350.046,382.54z"/>
					</g>
					<g>
						<g>
							<path style="fill:#FACCBB;" d="M319.076,415.798l-1.05,26.743c0,0-4.391,1.762-9.637,0.827
								c-5.247-0.93-7.353-5.01-7.353-5.01s2.333-13.114,2.032-20.08L319.076,415.798z"/>
							<g>
								<path style="fill:#7239A2;" d="M319.131,439.428c1.011,0.393,0.474,6.53,0.359,8.75c-0.112,2.219,1.469,9.25-2.183,10.726
									c-2.511,1.017-8.093-0.141-10.033-0.239c-1.941-0.1-3.27-1.281-5.474-1.676c-2.204-0.388-5.851,0.256-6.695,0.488
									c-0.845,0.235-3.719,2.59-13.099,0.996c-9.378-1.601-9.555-6.331-8.711-10.458c0.843-4.129,5.389-2.78,9.993-3.933
									c3.463-0.867,8.198-2.636,9.932-3.934c1.736-1.303,6.489-6.893,7.662-5.165c1.171,1.729,5.577,4.38,8.62,4.973
									C314.257,440.892,318.125,439.033,319.131,439.428z"/>
								<path style="fill:none;stroke:#A7939D;stroke-miterlimit:10;" d="M318.052,454.496c0,0-3.705,1.756-8.974,1.48
									c-5.264-0.269-7.658-2.343-11.322-1.416c-3.662,0.921-7.353,2.221-12.353,2.415c-6.129,0.24-10.653-3.602-10.653-3.602"/>
								<path style="fill:none;stroke:#A7939D;stroke-miterlimit:10;" d="M297.832,442.331c0,0-1.505-3.133-3.169-3.219"/>
								<path style="fill:none;stroke:#A7939D;stroke-miterlimit:10;" d="M294.392,444.377c0,0-1.505-3.132-3.169-3.22"/>
							</g>
						</g>
						<path style="fill:#314054;" d="M334.714,273.216c-6.369,0.086-32.298-8.368-32.298-8.368s-9.298,34.006-7.999,48.074
							c1.027,11.097,1.057,39.307,1.195,43.367c0.135,4.059,1.457,18.647,1.654,21.83c1.082,17.905,4.143,42.841,4.143,42.841
							s3.432,1.103,9.105,1.415c5.311,0.299,8.952-1.089,8.952-1.089s5.303-29.239,6.94-43.568c1.134-9.903-1.79-21.83-1.79-21.83
							l5.489-34.404c0,0,7.216-19.794,7.42-32.42C337.729,276.441,334.714,273.216,334.714,273.216z"/>
					</g>
					<path style="fill:none;stroke:#4D6986;stroke-width:1.1497;stroke-miterlimit:10;" d="M339.806,289.825
						c0,0-4.272,21.64-6.739,27.844c-2.469,6.201-8.704,33.523-8.704,33.523"/>
				</g>
				<path style="fill:#7239A2;" d="M339.331,183.096c0,0-17.918,1.358-23.077,8.145c-4.231,5.567-8.145,17.104-9.502,27.964
					c-1.358,10.86-2.223,34.189-3.205,38.716c-1.329,6.083-5.335,21.893-5.335,21.893s14.401,13.868,30.339,12.762
					c15.943-1.103,27.628-6.609,27.628-6.609s-0.288-8.663-0.288-24.953c0-3.843,4.949-23.41,5.973-27.692
					c5.973-24.978,2.636-28.885-3.801-39.638C351.255,182.543,342.813,184.291,339.331,183.096z"/>
				<g>
					<path style="fill:#FACCBB;" d="M324.341,169.931c0,0-0.221,12.114-1.028,22.124c7.905,8.859,23.349-4.344,23.349-4.344
						l-5.415-17.968L324.341,169.931z"/>
					<path style="fill:#FACCBB;" d="M318.263,151.531c0.316-0.581,3.613-7.248,4.868-9.34c7.942-13.288,22.346-5.368,22.346-5.368
						c25.96,7.899,11.84,28.368,6.475,32.849c-5.366,4.484-10.962,6.35-15.058,6.767c-4.094,0.425-11.175,0.647-13.748-0.01
						c-2.573-0.659-4.908-0.854-6.583-3.623c-1.675-2.769-0.883-11.402-0.883-11.402s-3.631-4.026-2.452-5.496
						C314.402,154.433,317.949,152.109,318.263,151.531z"/>
					<path style="fill:#4A1B00;" d="M322.704,151.357c0.924,0.442,1.33,1.576,0.891,2.502c-0.438,0.922-1.571,1.33-2.497,0.889
						c-0.922-0.438-1.329-1.573-0.894-2.496C320.643,151.326,321.779,150.92,322.704,151.357z"/>
					<path style="fill:#4A1B00;" d="M356.605,135.032c-2.177-1.515-7.734-3.661-7.827-3.796c-0.646-0.949-1.34-1.866-2.113-2.714
						c-1.316-1.443-2.718-3.074-4.828-3.009c-2.09,0.064-3.864,4.372-3.864,4.372s-4.615-4.344-7.33-3.258
						c-2.716,1.086-1.086,6.516-1.086,6.516s-7.059-1.629-8.688,1.086c-1.629,2.715,1.128,4.678,2.86,6.595
						c1.732,1.917,8.995,11.793,8.104,17.77c-0.62,4.146,4.366,5.055,4.366,5.055s-0.007,3.806,0.689,5.603s2.025,4.285,2.443,5.43
						c0.803,2.196,0.543,3.801,2.172,4.073c1.629,0.271,1.213-0.46,2.884-1.764c0,0.045,0.001,0.089,0.001,0.135
						c-0.01,0.871,1.303,1.306,1.707,0.462c0.407-0.85,0.822-1.627,1.291-2.437c0.081-0.141,0.166-0.277,0.25-0.412
						c0.167-0.075,0.326-0.137,0.475-0.175c2.157-0.551,9.047-2.704,11.943-6.466c2.897-3.764,4.034-8.548,4.618-14.024
						C365.271,148.443,360.585,137.799,356.605,135.032z"/>
					<path style="fill:#FACCBB;" d="M335.816,156.107c2.686-0.802,5.057,1.09,5.612,3.663c0.879,4.072-3.975,8.82-7.995,8.124
						c-1.871-0.321-2.702-2.18-2.5-3.874c-0.37-1.136-0.376-2.403,0.069-3.497C331.87,158.406,333.607,156.768,335.816,156.107z"/>
					<path style="fill:none;stroke:#DC8C7A;stroke-miterlimit:10;" d="M336.884,175.738c0,0-8.123,2.596-11.942,1.386"/>
					<g>
						<g>
							<path style="fill:#4A1B00;" d="M326.67,150.278c-0.963-1.788-2.851-3.12-4.929-2.651c-0.629,0.142-0.362,1.106,0.266,0.964
								c1.632-0.368,3.062,0.822,3.8,2.192C326.113,151.351,326.976,150.846,326.67,150.278L326.67,150.278z"/>
						</g>
					</g>
					<path style="fill:#FFFFFF;" d="M316.921,165.888c0.796-0.761,1.525,0.487,3.847,0.216c2.324-0.271,4.454-0.315,4.454-0.315
						s-0.902,3.75-4.397,4.1C316.869,170.284,316.124,166.65,316.921,165.888z"/>
				</g>
				<g>
					<g>
						<path style="fill:#FACCBB;" d="M275.928,160.102c0,0,4.291,2.626,7.835,5.99c1.821,1.727,3.066,3.634,4.221,5.512
							c3.403,5.536,4.281,11.99,4.267,15.019c-0.012,3.027-3.934,8.375-9.433,7.749c-3.504-0.398-4.29-3.396-7.139-7.325
							c-0.615-0.847-1.545-3.467-1.545-3.467s-0.944,2.132-2.517,0.329c-0.439-0.503-2.14-2.063-2.042-3.672
							c0.083-1.326,0.646-3.145,1.211-3.839c1.253-1.537,2.965-0.956,2.965-0.956s-0.098-1.667,1.567-2.409
							c1.665-0.742,2.546-0.28,2.546-0.28s0.264-0.728,0.993-1.297c0.729-0.569,1.716-0.398,1.716-0.398s-1.571-3.51-4.563-5.198
							c-2.992-1.69-4.38-2.834-4.05-4.744C272.291,159.205,273.61,158.889,275.928,160.102z"/>
						<g>
							<path style="fill:none;stroke:#DC8C7A;stroke-miterlimit:10;" d="M277.814,172.899c0,0,2.021,1.176,2.944,3.941"/>
							<path style="fill:none;stroke:#DC8C7A;stroke-miterlimit:10;" d="M273.648,175.245c0,0,2.021,1.176,2.945,3.941"/>
							<path style="fill:none;stroke:#DC8C7A;stroke-miterlimit:10;" d="M280.574,171.058c0,0,2.646,0.898,3.365,2.776"/>
							<path style="fill:none;stroke:#DC8C7A;stroke-miterlimit:10;" d="M273.666,183.913c0,0,1.152-2.224-0.608-4.128"/>
							<path style="fill:none;stroke:#DC8C7A;stroke-miterlimit:10;" d="M275.288,180.868c0,0-1.092,0.12-1.354,0.849"/>
						</g>
					</g>
					<g>
						<path style="fill:#FACCBB;" d="M290.941,189.153c0,0,6.666,10.775,10.039,16.59c3.372,5.814,6.043,10.476,6.043,10.476
							l4.615-4.887l14.932,13.303c0,0-4.096,8.967-10.045,12.76c-5.949,3.794-13.481,6.35-17.157,4.786
							c-7.352-3.126-10.349-15.269-13.145-22.342c-2.797-7.074-4.454-27.269-4.454-27.269L290.941,189.153z"/>
						<path style="fill:none;stroke:#DC8C7A;stroke-miterlimit:10;" d="M301.05,223.549c0,0,1.9-5.43,5.973-7.059"/>
					</g>
				</g>
			</g>
		</g>
	</g>
</g>
</svg>
